<svg width="35" height="35" viewBox="0 0 35 35" fill="none" xmlns="http://www.w3.org/2000/svg">
<path d="M34.1623 0.843026C33.7845 0.466953 33.3106 0.202575 32.7926 0.0789476C32.2747 -0.0446795 31.7327 -0.0227704 31.2264 0.142267L2.00725 9.91284C1.46535 10.085 0.986485 10.4142 0.631145 10.859C0.275805 11.3039 0.0599261 11.8443 0.0107733 12.412C-0.0383795 12.9797 0.0813988 13.5493 0.354981 14.0488C0.628562 14.5484 1.04368 14.9554 1.54789 15.2186L13.6709 21.2251L19.6626 33.4183C19.9034 33.8955 20.2719 34.2962 20.7269 34.5756C21.1819 34.8549 21.7054 35.0019 22.239 35H22.4387C23.0101 34.9578 23.5556 34.7443 24.0044 34.3872C24.4532 34.0302 24.7844 33.5461 24.9552 32.9978L34.8414 3.78621C35.0179 3.28153 35.0478 2.73696 34.9276 2.2159C34.8074 1.69485 34.542 1.21875 34.1623 0.843026ZM3.24552 12.6758L28.7499 4.1466L14.5897 18.342L3.24552 12.6758ZM22.3788 31.8366L16.7067 20.4643L30.8669 6.2689L22.3788 31.8366Z" fill="#003366"/>
</svg>
