<svg width="40" height="40" viewBox="0 0 40 40" fill="none" xmlns="http://www.w3.org/2000/svg">
<path fill-rule="evenodd" clip-rule="evenodd" d="M0 20C0 8.9543 8.95459 0 20.0006 0C25.3051 0 30.3924 2.10714 34.1432 5.85786C37.8941 9.60859 40.0013 14.6957 40.0013 20C40.0013 31.0457 31.0467 40 20.0006 40C8.95459 40 0 31.0457 0 20ZM2.00006 20C2.00006 29.9411 10.0592 38 20.0006 38C29.9421 38 38.0012 29.9411 38.0012 20C38.0012 10.0589 29.9421 2 20.0006 2C10.0592 2 2.00006 10.0589 2.00006 20ZM19.0006 24.4V7.4H21.4007V24.4H19.0006ZM21.2007 32.6V29H18.8006V32.6H21.2007Z" fill="#003366"/>
</svg>
