<svg width="43" height="43" viewBox="0 0 43 43" fill="none" xmlns="http://www.w3.org/2000/svg">
<path d="M40.016 25.9337L17.0623 3.00069C13.2367 -0.974373 6.96263 -0.974373 2.98399 2.8478C-0.994662 6.66997 -0.994662 13.0912 2.98399 16.9134L3.13701 17.0663L7.42171 21.5L9.56406 19.3596L5.12633 14.9259C2.52491 12.3268 2.52491 7.89307 5.12633 5.29399C7.72776 2.69491 12.1655 2.54203 14.7669 5.1411L14.9199 5.29399L37.7206 28.0741C40.4751 30.6732 40.4751 35.1069 37.8737 37.706C35.2722 40.458 30.8345 40.458 28.2331 37.8589L28.0801 37.706L16.7562 26.3924C15.226 24.8635 15.379 22.4173 16.7562 21.0413C18.2865 19.6654 20.5819 19.6654 22.1121 21.0413L28.3861 27.3097L30.5285 25.1693L24.1014 18.748C21.347 16.149 17.0623 16.3018 14.4609 19.0538C12.0125 21.6529 12.0125 25.7808 14.4609 28.5328L25.9377 39.9993C29.7633 43.9744 36.0374 43.9744 40.016 40.1522C43.9947 36.33 43.9947 29.9088 40.016 25.9337Z" fill="#003366"/>
</svg>
