<svg
  version="1.1" id="Layer_1" xmlns="http://www.w3.org/2000/svg" xmlns:xlink="http://www.w3.org/1999/xlink" xml:space="preserve"
  width="32"
  height="32"
  viewBox="0 0 304 256"
  aria-hidden="true"
>
  <path fill="#fff" opacity="1.000000" stroke="none" 
	d="
M200.887268,237.076721 
	C138.476227,261.635925 70.338028,230.827972 48.905579,167.936096 
	C34.652225,126.110733 48.228443,81.700439 80.756485,53.007938 
	C98.504501,37.352684 119.208939,27.793917 142.608017,24.922750 
	C176.405090,20.775705 206.709106,29.703907 232.705673,51.817741 
	C261.894257,76.646835 274.799103,108.986259 270.817474,146.551926 
	C266.458649,187.676498 243.344269,216.702362 206.256882,234.677643 
	C204.608597,235.476547 202.918167,236.188507 200.887268,237.076721 
M233.897705,69.607666 
	C205.461823,40.006317 170.972992,30.078390 131.370071,39.558483 
	C80.400009,51.759621 48.383400,101.033623 57.529400,152.109360 
	C66.398239,201.637314 113.656288,236.510605 163.552673,233.010269 
	C191.927505,231.019745 215.580597,219.799362 234.512863,198.801926 
	C250.784546,180.755310 259.450104,159.254578 259.173828,135.027756 
	C258.895630,110.637520 250.849258,88.629974 233.897705,69.607666 
z"/>
<path fill="#fff" opacity="1.000000" stroke="none" 
	d="
M174.942322,87.058426 
	C180.072968,92.183945 184.954102,97.058998 190.401321,102.499435 
	C191.459427,95.790619 191.019257,89.992813 190.869919,84.254654 
	C190.739304,79.236458 193.256516,78.616386 197.387482,78.668579 
	C201.285324,78.717819 203.570084,79.199577 203.443253,84.035713 
	C203.137741,95.684532 203.240692,107.348206 203.403381,119.002754 
	C203.455536,122.738853 202.444427,124.412857 198.368637,124.345947 
	C186.215515,124.146423 174.055573,124.166100 161.901459,124.332130 
	C157.919601,124.386528 156.635284,122.794930 156.729004,118.990753 
	C156.820740,115.266823 156.590927,111.876747 161.911560,112.036575 
	C168.041153,112.220695 174.180511,112.079346 180.294632,112.079346 
	C180.651657,109.727440 179.031464,109.037071 178.069717,108.050499 
	C172.257980,102.088799 166.389679,96.181831 160.507080,90.289734 
	C154.346359,84.119064 149.542679,84.037018 143.527191,90.153503 
	C130.450607,103.449699 117.465652,116.836090 104.370605,130.113983 
	C102.839455,131.666519 101.396889,134.706589 98.817230,133.392944 
	C95.442963,131.674698 92.658081,128.820160 90.946579,125.316040 
	C90.309914,124.012543 91.642387,122.848892 92.594772,121.923515 
	C108.118401,106.839928 123.478050,91.580940 139.266830,76.779816 
	C146.727814,69.785545 158.179337,70.529312 165.537521,77.595093 
	C168.659470,80.592964 171.645187,83.732697 174.942322,87.058426 
z"/>
<path fill="#fff" opacity="1.000000" stroke="none" 
	d="
M154.885681,195.471710 
	C149.145828,192.624680 145.705124,187.786591 141.615723,183.666061 
	C136.335403,178.345520 131.048538,173.031403 125.743637,167.735428 
	C125.564232,167.556320 125.159477,167.602936 124.276924,167.430359 
	C124.276924,173.483475 124.039650,179.430405 124.349213,185.348724 
	C124.614655,190.423431 121.630852,190.473572 117.991455,190.446548 
	C114.420242,190.420029 111.450317,190.551666 111.556068,185.406326 
	C111.802490,173.416687 111.703125,161.416397 111.524185,149.423706 
	C111.470032,145.794693 113.058701,144.807358 116.323868,144.827576 
	C128.651733,144.903900 140.982864,145.001022 153.307571,144.788528 
	C158.893494,144.692215 158.134018,148.299576 158.365463,151.822876 
	C158.629715,155.845795 157.283218,157.608749 153.016663,157.423767 
	C146.885788,157.157974 140.734818,157.355927 134.630539,157.355927 
	C134.075500,159.397186 135.460373,160.072205 136.321701,160.929626 
	C142.578964,167.158630 148.873413,173.350372 155.165100,179.544739 
	C160.257187,184.558044 166.309738,184.663177 171.351746,179.591019 
	C184.857361,166.004700 198.263855,152.319885 211.760529,138.724640 
	C213.060913,137.414764 214.397583,134.846115 216.624008,136.447739 
	C219.666565,138.636475 222.974686,140.859039 224.335266,144.618988 
	C224.725342,145.696945 223.276245,146.585312 222.456253,147.387543 
	C207.214188,162.299347 192.078339,177.322769 176.652039,192.041733 
	C170.553528,197.860596 163.086578,198.635300 154.885681,195.471710 
z"/>
</svg>
