<svg width="19" height="13" viewBox="0 0 19 13" fill="none" xmlns="http://www.w3.org/2000/svg">
<path d="M9.27002 10C11.203 10 12.77 8.433 12.77 6.5C12.77 4.567 11.203 3 9.27002 3C7.33702 3 5.77002 4.567 5.77002 6.5C5.77002 8.433 7.33702 10 9.27002 10Z" stroke="#0066CC"/>
<path d="M17.458 5.434C17.846 5.906 18.04 6.141 18.04 6.5C18.04 6.859 17.846 7.094 17.458 7.566C16.038 9.29 12.906 12.5 9.27 12.5C5.634 12.5 2.502 9.29 1.082 7.566C0.694 7.094 0.5 6.859 0.5 6.5C0.5 6.141 0.694 5.906 1.082 5.434C2.502 3.71 5.634 0.5 9.27 0.5C12.906 0.5 16.038 3.71 17.458 5.434Z" stroke="#0066CC"/>
</svg>
