<svg width="24" height="24" viewBox="0 0 24 24" fill="none" xmlns="http://www.w3.org/2000/svg">
<path fill-rule="evenodd" clip-rule="evenodd" d="M3.99609 9.44677V20.5009C3.99609 20.777 4.21995 21.0009 4.49609 21.0009H8.7068C8.98294 21.0009 9.2068 20.777 9.2068 20.5009V16.0466C9.2068 14.6659 10.3261 13.5466 11.7068 13.5466H12.0198C13.4006 13.5466 14.5198 14.6659 14.5198 16.0466V20.5009C14.5198 20.777 14.7437 21.0009 15.0198 21.0009H19.2305C19.5067 21.0009 19.7305 20.777 19.7305 20.5009V9.44677C19.7305 9.29001 19.657 9.14232 19.5319 9.04783L12.1647 3.48191C11.9864 3.34717 11.7403 3.34717 11.5619 3.48191L4.19469 9.04783C4.06961 9.14232 3.99609 9.29001 3.99609 9.44677ZM2.99609 20.5009C2.99609 21.3293 3.66767 22.0009 4.49609 22.0009H8.7068C9.53522 22.0009 10.2068 21.3293 10.2068 20.5009V16.0466C10.2068 15.2182 10.8784 14.5466 11.7068 14.5466H12.0198C12.8483 14.5466 13.5198 15.2182 13.5198 16.0466V20.5009C13.5198 21.3293 14.1914 22.0009 15.0198 22.0009H19.2305C20.059 22.0009 20.7305 21.3293 20.7305 20.5009V9.44677C20.7305 8.97649 20.51 8.53343 20.1348 8.24994L12.7675 2.68402C12.2325 2.2798 11.4942 2.2798 10.9591 2.68402L3.59189 8.24994C3.21665 8.53343 2.99609 8.97649 2.99609 9.44677V20.5009Z" fill="black"/>
</svg>
