<svg width="32" height="40" viewBox="0 0 32 40" fill="none" xmlns="http://www.w3.org/2000/svg">
<path fill-rule="evenodd" clip-rule="evenodd" d="M16.0005 22C20.4189 22 24.0008 18.4183 24.0008 14V8C24.0008 3.58172 20.4189 0 16.0005 0C11.5821 0 8.00026 3.58172 8.00026 8V14C8.00026 18.4183 11.5821 22 16.0005 22ZM10.0003 8C10.0003 4.68629 12.6867 2 16.0005 2C19.3143 2 22.0007 4.68629 22.0007 8V14C22.0007 17.3137 19.3143 20 16.0005 20C12.6867 20 10.0003 17.3137 10.0003 14V8ZM30.001 40H32.001C32.001 31.1634 24.8374 24 16.0005 24C7.16367 24 0 31.1634 0 40H2.00006C2.00006 32.268 8.26828 26 16.0005 26C23.7327 26 30.001 32.268 30.001 40Z" fill="#003366"/>
</svg>
