<svg width="48" height="48" viewBox="0 0 48 48" fill="none" xmlns="http://www.w3.org/2000/svg">
<path fill-rule="evenodd" clip-rule="evenodd" d="M32.0009 30.6L43.8013 42.2L42.2012 43.8L30.6009 32C27.6458 34.5352 23.8937 35.951 20.0005 36C11.1637 36 4 28.8366 4 20C4 11.1634 11.1637 4 20.0005 4C28.8374 4 36.001 11.1634 36.001 20C35.952 23.8931 34.5361 27.6451 32.0009 30.6ZM6.00006 20C6.00006 27.732 12.2683 34 20.0005 34C23.7137 34 27.2747 32.525 29.9003 29.8995C32.5259 27.274 34.001 23.713 34.001 20C34.001 12.268 27.7327 6 20.0005 6C12.2683 6 6.00006 12.268 6.00006 20Z" fill="#003366"/>
</svg>
