<svg width="24" height="24" viewBox="0 0 24 24" fill="none" xmlns="http://www.w3.org/2000/svg">
<path fill-rule="evenodd" clip-rule="evenodd" d="M21.8 13.9C21.9158 13.2728 21.9827 12.6376 22 12C21.9827 11.3624 21.9158 10.7272 21.8 10.1L19.7 9.8C19.5274 9.2102 19.2927 8.64035 19 8.1L20.3 6.4C19.611 5.31117 18.6888 4.38896 17.6 3.7L15.9 5L14.2 4.3L13.9 2.2L12 2L10.1 2.2L9.8 4.3L8.1 5L6.4 3.7C5.31117 4.38896 4.38896 5.31117 3.7 6.4L5 8.1C4.70728 8.64035 4.47264 9.2102 4.3 9.8L2.2 10.1C2.08417 10.7272 2.01731 11.3624 2 12C2.01731 12.6376 2.08417 13.2728 2.2 13.9L4.3 14.2C4.47264 14.7898 4.70728 15.3596 5 15.9L3.7 17.6C4.38896 18.6888 5.31117 19.611 6.4 20.3L8.1 19L9.8 19.7L10.1 21.8L12 22L13.9 21.8L14.2 19.7L15.9 19L17.6 20.3C18.6888 19.611 19.611 18.6888 20.3 17.6L19 15.9C19.2927 15.3596 19.5274 14.7898 19.7 14.2L21.8 13.9ZM7.5 12C7.5 9.51472 9.51472 7.5 12 7.5C14.4853 7.5 16.5 9.51472 16.5 12C16.5 14.4853 14.4853 16.5 12 16.5C9.51472 16.5 7.5 14.4853 7.5 12ZM8.76642 13.3394C9.30815 14.6473 10.5844 15.5 12 15.5C13.933 15.5 15.5 13.933 15.5 12C15.5 10.5844 14.6473 9.30815 13.3394 8.76642C12.0315 8.22469 10.5261 8.52413 9.52513 9.52513C8.52413 10.5261 8.22469 12.0315 8.76642 13.3394ZM18.7 13.9L18.9 13.2H19.6L20.9 13C20.9827 12.6735 21.0164 12.3364 21 12C21.0164 11.6636 20.9827 11.3265 20.9 11L19.6 10.8H18.9L18.7 10.1C18.6069 9.5636 18.4025 9.05264 18.1 8.6L17.8 8L18.2 7.5L19 6.4C18.5845 5.88485 18.1152 5.41552 17.6 5L16.5 5.8L16 6.2L15.4 5.9C14.9474 5.5975 14.4364 5.39311 13.9 5.3L13.2 5.1V4.4L13 3.1H11L10.8 4.4V5.1L10.1 5.3C9.5636 5.39311 9.05264 5.5975 8.6 5.9L8 6.2L7.5 5.8L6.4 5L5 6.4L5.8 7.5L6.2 8L5.9 8.6C5.5975 9.05264 5.39311 9.5636 5.3 10.1L5.1 10.8H4.4L3.1 11C3.01731 11.3265 2.98361 11.6636 3 12C2.98361 12.3364 3.01731 12.6735 3.1 13L4.4 13.2H5.1L5.3 13.9C5.39311 14.4364 5.5975 14.9474 5.9 15.4L6.2 16L5.8 16.5L5 17.6C5.41552 18.1152 5.88485 18.5845 6.4 19L7.5 18.2L8 17.8L8.6 18.1C9.05264 18.4025 9.5636 18.6069 10.1 18.7L10.8 18.9V19.6L11 20.9H13L13.2 19.6V18.9L13.9 18.7C14.4364 18.6069 14.9474 18.4025 15.4 18.1L16 17.8L16.5 18.2L17.6 19C18.1152 18.5845 18.5845 18.1152 19 17.6L18.2 16.5L17.8 16L18.1 15.4C18.4025 14.9474 18.6069 14.4364 18.7 13.9Z" fill="black"/>
</svg>
