<svg width="28" height="40" viewBox="0 0 28 40" fill="none" xmlns="http://www.w3.org/2000/svg">
<path fill-rule="evenodd" clip-rule="evenodd" d="M3.0001 0H19.4006L28.0009 8.6V37C28.0009 38.6569 26.6577 40 25.0008 40H3.0001C1.34319 40 0 38.6569 0 37V3C0 1.34315 1.34319 0 3.0001 0ZM24.6008 8L20.0006 3.4V7C20.0006 7.55228 20.4484 8 21.0007 8H24.6008ZM26.0008 37C26.0008 37.5523 25.5531 38 25.0008 38H3.0001C2.44779 38 2.00006 37.5523 2.00006 37V3C2.00006 2.44772 2.44779 2 3.0001 2H18.0006V7C18.0006 8.65685 19.3438 10 21.0007 10H26.0008V37ZM22.0007 14H6.00019V16H22.0007V14ZM6.00019 18H22.0007V20H6.00019V18ZM14.0005 22H6.00019V24H14.0005V22Z" fill="#003366"/>
</svg>
