<svg width="4" height="18" viewBox="0 0 4 18" fill="none" xmlns="http://www.w3.org/2000/svg">
<path fill-rule="evenodd" clip-rule="evenodd" d="M0 2C0 0.89543 0.89543 0 2 0C3.10457 0 4 0.89543 4 2C4 3.10457 3.10457 4 2 4C0.89543 4 0 3.10457 0 2ZM2 1C2.27391 0.96742 2.54764 1.06225 2.7427 1.2573C2.93775 1.45236 3.03258 1.72609 3 2C3 2.55228 2.55228 3 2 3C1.44772 3 1 2.55228 1 2C0.96742 1.72609 1.06225 1.45236 1.2573 1.2573C1.45236 1.06225 1.72609 0.96742 2 1ZM0 9C0 7.89543 0.89543 7 2 7C3.10457 7 4 7.89543 4 9C4 10.1046 3.10457 11 2 11C0.89543 11 0 10.1046 0 9ZM2 8C2.55228 8 3 8.44772 3 9C3 9.55229 2.55228 10 2 10C1.44772 10 1 9.55229 1 9C0.96742 8.72609 1.06225 8.45236 1.2573 8.25731C1.45236 8.06225 1.72609 7.96742 2 8ZM0 16C0 14.8954 0.89543 14 2 14C3.10457 14 4 14.8954 4 16C4 17.1046 3.10457 18 2 18C0.89543 18 0 17.1046 0 16ZM3 16C3 15.4477 2.55228 15 2 15C1.72609 14.9674 1.45236 15.0623 1.2573 15.2573C1.06225 15.4524 0.96742 15.7261 1 16C1 16.5523 1.44772 17 2 17C2.55228 17 3 16.5523 3 16Z" fill="#0066CC"/>
</svg>
