<svg width="108" height="120" viewBox="0 0 108 120" fill="none" xmlns="http://www.w3.org/2000/svg">
<g clip-path="url(#clip0_8123_130971)">
<path fill-rule="evenodd" clip-rule="evenodd" d="M82.0286 80.332C82.5654 80.332 83.3182 80.604 83.1294 81.0552C82.9422 81.5096 82.7286 82.272 82.3046 82.3232C81.8814 82.3712 81.0566 81.7728 81.0566 81.24C81.0566 80.7072 81.4926 80.332 82.0286 80.332Z" fill="white"/>
<path fill-rule="evenodd" clip-rule="evenodd" d="M35.3764 94.9516C35.966 95.246 36.5556 95.246 37.1452 94.9516L36.7028 94.2556L35.6924 93.3724C35.1444 93.078 34.702 93.3508 34.3652 94.1916L35.3764 94.9516Z" fill="white"/>
<path fill-rule="evenodd" clip-rule="evenodd" d="M65.5697 115.418C65.4017 115.712 65.5065 116.007 65.8865 116.301C66.2657 116.598 66.5801 116.66 66.8329 116.492L65.5697 115.418Z" fill="#6F7072"/>
<path fill-rule="evenodd" clip-rule="evenodd" d="M106.439 57.0494C106.775 54.7758 106.544 53.3438 105.745 52.7542C104.902 52.1646 103.87 52.3542 102.65 53.3222C101.933 52.943 100.966 53.3014 99.7435 54.3958C99.9547 53.8486 99.9747 53.3646 99.8067 52.9438C100.902 52.4382 101.607 51.8798 101.923 51.2702C102.239 50.6598 102.398 49.7014 102.398 48.3958C102.523 47.5958 103.26 46.1638 104.608 44.1006C105.534 42.0366 104.882 41.3206 102.651 41.9526C103.871 40.8574 104.482 39.9094 104.482 39.1094C104.566 38.351 104.251 37.383 103.534 36.2038C103.239 35.5302 102.797 35.4038 102.207 35.8246C102.418 35.4038 102.534 34.8982 102.555 34.3086C102.576 33.7198 102.187 32.4766 101.387 30.5814C101.261 28.0974 100.67 27.0654 99.6187 27.4862C99.4499 26.1814 99.0283 24.9382 98.3547 23.7598C97.3435 22.2438 96.5443 21.843 95.9555 22.5598C94.3115 20.1174 92.7739 19.107 91.3435 19.527C91.3003 18.475 90.9427 17.527 90.2691 16.6854C89.8899 15.0854 89.4259 13.9694 88.8795 13.3366C88.1211 13.0422 87.5955 13.4638 87.3003 14.6006C87.1739 13.6742 86.8795 12.7054 86.4155 11.6942C85.9523 10.6838 85.2163 10.1582 84.2051 10.1158C83.8259 10.0734 83.4683 10.1366 83.1299 10.3054C82.4571 9.88382 81.8891 9.67342 81.4251 9.67342C79.9931 8.15742 78.6883 8.03102 77.5091 9.29342L77.3187 7.96782C76.8971 6.40942 76.0555 6.07262 74.7915 6.95742C72.7291 4.80942 70.9603 3.39822 69.4859 2.72462C68.2643 2.30382 67.4635 2.40862 67.0851 3.04142C66.4539 2.40942 65.7787 2.00862 65.0643 1.84062C64.3475 1.67262 63.6747 1.48302 63.0435 1.27182C62.0747 1.23022 61.6539 1.75662 61.7795 2.85102C60.2635 2.93582 59.2219 3.19902 58.6523 3.64062C58.0843 4.08302 57.9371 4.70462 58.2107 5.50462C58.4843 6.30462 59.1051 6.95742 60.0747 7.46222C59.8219 7.75742 59.7171 8.22062 59.7587 8.85182C59.8011 9.48382 60.4739 10.0102 61.7787 10.431C62.7483 10.6838 63.6955 10.7046 64.6219 10.4942C64.4115 11.4622 64.7483 12.0734 65.6323 12.3262C66.8531 13.5902 68.3699 13.9062 70.1811 13.2742L69.9915 14.4742L72.4555 15.4846C72.5395 16.6646 73.0867 17.5062 74.0987 18.011L75.0643 18.4286C74.8555 18.4526 73.9507 19.2006 73.9387 19.3198C73.7379 19.5534 73.1963 20.7166 74.5123 20.9734C75.5139 21.0878 76.6107 21.1902 77.6635 21.1678C77.6899 21.4782 77.8787 21.9822 78.0787 22.3414C78.2587 22.7214 78.6987 23.275 79.4363 24.075C80.1203 24.819 81.4099 25.5534 82.4979 26.015C82.4275 26.0934 82.1291 26.9142 81.8563 27.6686C81.5227 28.5902 81.3499 30.0854 81.9939 30.8878C81.8539 30.819 81.2507 31.2406 81.0339 31.575C80.2483 32.791 81.9523 34.535 82.2227 35.135C82.0907 35.1198 81.6195 35.3582 81.3715 35.5358C80.7859 35.9526 80.9851 38.0462 82.6499 38.4038C83.0667 38.6046 84.9795 39.7158 85.9339 40.6886C86.1203 40.879 86.6563 41.887 87.4203 42.8902C87.8283 43.4262 88.2595 44.3294 89.2579 44.3518C90.1699 47.3062 91.6731 50.1278 93.4747 52.883C93.4659 52.9686 95.1203 54.7246 95.7147 56.3142C95.5139 57.3422 95.5371 58.2262 95.5331 58.2766C95.3163 60.3078 94.9499 62.1726 94.4379 63.8694C92.6459 63.0046 92.3547 64.1838 92.0883 65.3422C92.1339 65.2838 91.2555 65.171 91.1387 65.575C91.2163 64.8742 90.0627 64.2574 89.5395 64.6294C89.5251 64.6382 88.9643 65.0334 88.6171 65.2974C88.4995 65.387 88.3963 64.719 88.3579 64.2198C88.3403 63.8774 88.2731 62.7046 88.4915 62.2454C88.5259 62.1702 88.9491 61.6638 89.2115 61.1934C89.7435 60.2398 89.3547 57.235 88.6979 55.1558C88.5003 54.5326 88.0907 54.235 87.7315 54.0934C87.5859 54.0366 86.6427 54.0902 86.4627 54.8142C86.4123 54.403 85.7483 54.159 85.2563 54.0422C83.8747 53.7142 82.3971 56.3678 82.5619 58.8326C81.5563 58.0358 80.2299 58.2894 80.3907 59.671C80.6163 61.603 83.5227 65.0366 83.6107 66.587C82.7411 65.8102 80.7691 65.791 80.7667 67.675C80.7651 68.2478 81.2331 69.2182 81.4283 69.6326C81.0259 71.6414 83.3443 73.1142 85.2363 75.0102C85.2027 75.9078 85.5107 75.9198 85.7995 76.2694C85.4555 76.7998 83.3371 80.1374 83.3091 80.2166C83.2067 80.259 81.7443 79.439 81.2627 79.8638C80.7507 80.3174 80.3355 80.935 80.0955 81.3022L80.3491 83.6422C80.5179 84.6102 80.0011 85.695 78.8003 86.8926C77.6003 88.0934 76.8107 89.1982 76.4315 90.2102C76.2211 90.9678 75.3995 91.7902 73.9691 92.6734C73.8851 92.4214 73.5475 92.0198 72.9579 91.4726C72.8739 91.3046 72.7051 91.243 72.4523 91.2854C71.0203 91.6638 68.1355 93.3142 63.7979 95.463C63.0435 95.8446 61.9691 96.7998 60.5795 99.1998H58.1163C57.4419 98.3998 56.7267 97.9062 55.9675 97.2326C55.4203 96.8118 54.4515 96.767 53.0627 97.4822C51.7571 97.187 50.4523 97.3638 49.1459 98.2046C48.3459 98.4998 47.7563 98.5118 47.3779 98.3438L44.2827 94.9726C37.8819 92.2774 34.3859 91.0678 33.7963 91.3622C33.1651 91.7414 32.7019 92.2814 32.4075 92.9966C31.7755 92.703 30.8283 91.8998 29.5643 90.5926L27.6067 88.3814C26.1747 86.7822 25.5851 85.2646 25.8379 83.831L26.1539 81.8734C26.1963 81.579 26.1539 81.3462 26.0275 81.1782C25.5643 80.6734 24.7443 80.3702 24.3227 80.2838C24.2323 80.247 23.9587 80.1518 23.6475 81.2934C23.7299 81.5654 21.6267 78.5222 21.5979 78.4182C22.1643 77.8118 23.1691 76.0142 23.7427 73.9246C24.3915 71.5574 24.6923 68.9454 24.6659 67.947C24.7651 67.7598 24.7907 67.7086 24.9051 67.5966C25.8843 66.8454 27.1267 59.8142 26.8491 58.123C26.7227 57.4486 26.5643 57.1022 26.3747 57.0806C26.1851 57.059 26.0059 57.1126 25.8379 57.2382L26.2171 56.4798C26.4275 55.9318 26.4275 55.575 26.2171 55.4062C26.0915 55.2726 24.9515 55.2902 23.9619 55.7918C23.8411 54.6942 23.3211 53.0846 23.0539 52.5022C22.9651 52.3078 22.6907 52.5166 22.6819 52.5214C20.9139 53.5926 20.1283 55.9374 19.4995 58.8454L18.9923 59.3102C16.7251 62.151 14.9107 65.4582 14.1363 69.1774C13.7571 68.5862 13.5411 67.7326 13.2043 66.6166C12.8675 65.503 12.7627 64.7542 12.8883 64.3758C13.2251 63.787 13.1203 63.239 12.5723 62.7326C12.1507 62.311 11.6035 60.4166 10.9299 57.0478C10.9715 56.1638 11.3299 54.8366 12.0035 53.0686C12.6771 51.2998 13.8035 49.0598 15.2779 46.5326C15.3579 46.423 16.0115 45.7134 16.2123 45.663C18.3995 45.1198 28.1155 32.5302 27.0963 26.6686C26.9347 27.371 31.2691 19.751 31.6179 18.1846L32.1539 18.0102L32.7859 17.7582C34.8915 16.9158 36.6819 16.0166 38.3243 15.2582L40.8715 13.9054C42.6403 13.1478 44.3251 12.1158 45.9251 10.8102C47.6091 9.33662 48.5147 7.79982 48.6411 6.19902C48.3467 5.81982 47.4835 5.60942 46.0515 5.56702C46.8099 4.72462 47.2099 3.84062 47.2515 2.91342C46.7035 2.15582 45.0619 2.02942 42.3243 2.53502C39.4611 3.25102 36.9547 4.36702 34.8075 5.88302C32.6171 7.27262 30.6483 8.96782 28.9011 10.9678C27.1531 12.9678 25.7531 15.0422 24.7011 17.1902L25.9643 14.2846C26.5963 12.895 27.2699 11.2734 27.9859 9.42062C28.1963 8.53662 28.2067 7.90462 28.0171 7.52542C27.8283 7.14702 27.4171 7.04142 26.7859 7.20942C26.1123 7.37742 24.8907 8.26222 23.1219 9.86222C21.1843 11.8422 19.4683 14.2846 17.9739 17.1902C16.4787 20.095 15.4571 22.3902 14.9099 24.075C15.2043 22.1806 15.1627 20.559 14.7835 19.211C14.5731 18.663 14.1099 18.5158 13.3947 18.7686C12.7203 19.2326 12.0467 19.927 11.3731 20.8534C10.6995 21.7798 10.0467 22.675 9.41547 23.5374C8.78347 24.4014 8.03547 25.6326 7.17307 27.2334C6.30987 28.8334 5.55147 30.7294 4.89867 32.9182C4.24587 35.1086 3.75067 38.0142 3.41387 41.635C3.20347 43.9518 3.37227 46.4366 3.91947 49.0894C4.59307 51.7422 5.26667 53.7006 5.94027 54.9638C6.61467 56.2278 7.24587 56.9646 7.83627 57.175C8.21467 58.1014 8.72027 59.639 9.35227 61.7878C9.68907 62.7974 9.83627 63.5662 9.79387 64.0934C9.75227 64.6174 9.88907 64.9878 10.2051 65.199C10.5211 65.4094 10.7835 65.8294 10.9947 66.4606C11.5419 68.483 12.2787 70.3566 13.2051 72.0846C13.0371 73.0102 12.9531 73.9358 12.9531 74.8614C10.9323 69.011 9.28907 64.587 8.02587 61.5966C5.58347 56.1654 3.66667 53.6806 2.27707 54.1438C1.60107 54.3966 1.18027 55.007 1.01227 55.9758C0.969869 56.3542 0.969869 57.323 1.01227 58.8806C1.05387 60.439 1.20107 62.0822 1.45387 63.807C2.71787 69.4086 4.88667 74.0846 7.96107 77.8318L12.5723 83.2646C13.4987 84.1902 14.3827 84.875 15.2251 85.315C16.0675 85.7582 16.8467 85.8726 17.5627 85.663C18.6147 87.3486 19.9419 89.1158 21.5427 90.9702C22.5531 92.527 23.6067 93.2646 24.7011 93.1806C25.1643 94.191 25.8587 94.6974 26.7859 94.6974L27.7331 94.5718C29.0379 95.8342 30.2179 96.8438 31.2699 97.6038L30.0699 101.015C27.9643 101.309 26.0267 101.477 24.2579 101.52C22.6155 100.339 20.3003 98.7398 17.3099 96.7182L17.1203 92.9286C17.0355 91.6238 17.2675 90.5278 17.8147 89.6446C17.9411 88.9286 17.5411 88.275 16.6147 87.687C15.2251 87.0134 14.6347 86.7382 14.0451 86.8654C13.7931 86.9486 14.0019 87.1822 14.0019 87.5606V87.7966C14.0019 87.6054 14.0843 87.5414 14.3259 87.6222C16.0939 88.0878 16.8923 88.6766 16.7651 89.3926C16.2171 90.3174 15.9531 91.3726 15.9955 92.5502L16.0523 95.835C13.8203 94.3622 11.4163 93.0542 8.84827 91.9182C9.14267 91.8766 9.47867 91.8422 9.85707 91.823C10.2363 91.8014 10.4883 91.6662 10.6147 91.4134C10.7403 91.1582 10.5083 91.0126 9.91867 90.9702C8.61387 90.9702 7.77227 91.0742 7.39227 91.287C7.09787 91.623 7.16027 91.979 7.58187 92.3582C10.6139 93.875 13.2875 95.3902 15.6043 96.9086C19.2675 99.2254 22.1099 101.119 24.1315 102.593C26.1115 102.552 28.8899 102.277 32.4699 101.772L37.9027 100.762C40.1339 100.339 42.4507 99.9822 44.8507 99.6878C45.7347 99.5614 46.8507 99.4766 48.1995 99.4358C49.5467 99.3934 50.7891 99.2862 51.9259 99.119C53.0211 101.183 53.6947 102.993 53.9475 104.552C54.0739 105.352 53.9683 105.795 53.6315 105.879C48.6195 107.729 45.0195 108.899 42.8299 109.382C40.6403 109.867 38.6603 110.299 36.8915 110.678C32.4707 111.477 28.1115 112.131 23.8163 112.636C22.7211 112.341 19.5627 110.72 14.3411 107.772C10.6347 105.542 8.04507 103.729 6.57147 102.341C4.88747 100.529 4.21307 99.4358 4.55067 99.0542C5.64507 97.2446 6.38267 95.643 6.76107 94.255C6.92907 93.6662 6.97147 93.2038 6.88747 92.867C6.42427 91.4334 6.76107 90.6958 7.89867 90.6534C10.7195 90.4854 12.6155 90.443 13.5835 90.5278C14.0043 90.5694 14.2787 90.4438 14.4043 90.1486L15.3523 88.255L14.7835 88.003L14.0099 89.2654L14.0019 87.9886V89.6438L7.60187 89.7694C7.05387 89.7694 6.40267 89.9798 6.04347 90.4006C5.68587 90.8214 5.57627 91.6654 5.91227 92.9278C5.95467 93.3902 5.88427 93.7918 5.79947 94.1286C5.50507 95.475 4.70107 97.1182 3.43707 99.0534C3.26907 99.351 3.33067 99.7918 3.64587 100.381C3.96267 100.972 4.74587 101.897 6.00907 103.161C6.55707 103.708 7.38507 104.383 8.50107 105.182C9.61707 105.981 11.5843 107.205 14.4059 108.845C17.7323 110.826 20.9107 112.466 23.9427 113.774C24.5747 113.816 28.7851 113.247 36.5755 112.069L36.6387 112.761C34.4067 114.446 32.9747 115.143 32.3435 114.845C31.4587 114.929 31.1851 115.582 31.5227 116.805C31.7747 117.353 32.2387 117.731 32.9115 117.941L33.7331 118.889L36.0699 120.278C36.9539 120.53 37.7963 120.53 38.5963 120.278C39.3547 119.984 39.8603 119.329 40.1123 118.321L40.3611 118.071L42.8923 115.541L44.7235 114.153C46.1555 113.901 47.0819 113.396 47.5035 112.636C47.5875 111.962 47.7771 111.542 48.0715 111.373L50.2827 109.857C50.3667 109.646 51.2723 110.005 52.9995 110.931C53.8419 111.141 54.5787 111.099 55.2107 110.805L56.8531 109.857C58.3275 110.196 60.9163 112.028 64.6227 115.354C64.5803 115.733 64.8123 116.173 65.3171 116.681C65.6115 117.06 66.4123 117.373 67.7179 117.626L68.6011 119.27L69.4859 119.587C70.7899 119.629 72.0115 119.164 73.1491 118.196L74.5387 117.753C75.2547 117.205 75.5707 116.658 75.4875 116.111L74.9179 115.541L73.7171 115.227C72.2003 114.509 70.6659 113.542 69.1067 112.321L68.0955 111.561C72.6859 112.364 78.3907 112.994 85.2139 113.457C86.0555 113.625 87.1819 113.193 88.5931 112.161C90.0035 111.132 94.2675 108.089 101.384 103.034C102.438 101.898 103.279 100.593 103.911 99.1182C103.279 98.5294 102.721 97.6878 102.237 96.591C101.754 95.4974 101.447 94.5718 101.321 93.811C101.152 93.095 101.131 92.4534 101.258 91.8838C101.383 91.3174 101.195 90.779 100.69 90.2734C100.478 89.979 99.9939 89.791 99.2371 89.707C97.8891 89.5814 96.3731 89.6006 94.6883 89.7686C93.8875 89.6846 93.4251 89.4966 93.2987 89.199L93.3619 87.6846C93.4883 87.011 93.2987 86.7166 92.7939 86.8014C90.9403 87.2638 89.8243 87.7262 89.4443 88.1894C88.8971 88.7782 88.9187 89.4094 89.5091 90.0854C89.9715 90.5054 90.2027 90.9886 90.2027 91.5382C89.9507 94.3182 89.7195 96.191 89.5091 97.159C86.4331 99.6022 84.3491 101.097 83.2539 101.644C82.3707 101.938 80.3915 101.812 77.3171 101.265C76.6427 100.676 76.1587 99.663 75.8643 98.2326C76.9163 97.6014 78.0331 96.8414 79.2123 95.9574C80.0123 95.8318 80.6867 95.6742 81.2331 95.483C81.7819 95.2958 82.0547 94.779 82.0547 93.935C82.6019 93.7238 83.0019 93.2614 83.2539 92.5462L86.9187 88.1262C88.0971 87.1134 89.3811 86.5246 90.7707 86.3558C92.4547 86.2302 94.6459 85.2814 97.3403 83.5142C97.7619 83.0486 97.7619 82.3974 97.3403 81.5542C98.1411 81.091 99.4467 79.787 101.257 77.6374C101.972 76.6278 102.14 75.5118 101.762 74.291C103.446 72.2686 104.395 70.6702 104.605 69.4886C104.773 68.4374 104.752 67.2982 104.542 66.0782C105.341 65.5726 105.899 65.1406 106.217 64.7822C106.533 64.4262 106.69 63.9294 106.69 63.2982C106.69 62.6678 106.458 62.1406 105.995 61.719C107.219 59.9974 107.366 58.439 106.439 57.0494ZM47.5875 6.64142C47.5875 7.44142 47.1875 8.32542 46.2187 9.29422C44.7443 10.6422 42.9843 11.8846 40.7731 13.0214C38.5619 14.159 35.6011 15.5054 32.4011 17.0638V16.6854C36.4011 13.4854 40.4251 10.8742 44.0891 8.85182C45.0579 8.26222 44.6803 8.09422 43.5435 8.34622C42.2795 8.97822 40.9115 9.75742 39.3963 10.6838C36.8691 12.3262 34.4163 13.9478 32.0163 15.5478L32.0843 14.7894C36.8851 10.5782 40.8251 7.86302 43.8995 6.64062C45.4163 6.30462 46.7027 6.30462 47.5875 6.64142ZM33.2595 8.15742C35.5547 6.26222 38.3019 4.78862 41.5027 3.73502C43.0611 3.31422 44.4083 3.12462 45.5451 3.16702C46.0931 3.29342 46.2403 3.60862 45.9875 4.11422L44.5979 5.94622C43.3763 6.11502 41.7027 6.81022 39.5763 8.03102C37.4491 9.25262 35.1643 10.8742 32.7227 12.895L31.8387 13.4638C31.3755 13.1262 30.5331 13.2742 29.3123 13.9054C33.1867 10.663 36.5555 8.19902 39.4195 6.51502C41.2723 5.58862 42.3459 4.93582 42.6411 4.55662C41.7139 4.80942 40.4091 5.38942 38.7243 6.29422C37.0395 7.19902 34.2603 9.08382 30.3859 11.947L26.6587 15.295C28.7635 12.4318 30.9643 10.0526 33.2595 8.15742ZM29.3747 15.1694C30.0483 14.7894 30.5115 14.6422 30.7643 14.727C30.9323 15.1486 30.9747 15.727 30.8907 16.4646C30.8067 17.2022 30.2587 18.7494 29.2475 21.107L26.9107 25.6558C25.2683 25.8662 23.7107 26.6246 22.2363 27.9302C22.9947 26.6254 23.9107 25.1302 24.9843 23.4454C26.0587 21.7614 27.7323 19.2342 30.0067 15.8654C30.3851 15.2334 30.3963 15.0758 30.0387 15.3918C29.6803 15.7086 28.7219 16.9182 27.1643 19.0246C25.6059 21.1294 23.5219 24.3942 20.9107 28.815C20.1947 29.9102 18.4779 32.5486 15.6459 36.8926L15.9915 35.9134L19.7867 29.1942L23.4371 22.3718C25.1627 19.2958 27.1427 16.8958 29.3747 15.1694ZM13.8979 30.6446C15.5819 27.9078 17.6043 24.0334 19.9627 19.0222C20.6787 17.5478 21.7307 15.8846 23.1211 14.0326C23.5419 13.063 23.3107 13.0838 22.4259 14.0958C20.3627 16.6646 17.9619 20.7286 15.2251 26.287L16.4251 23.255C16.6363 22.5814 17.3099 21.055 18.4467 18.675C19.5835 16.2958 20.6995 14.411 21.7947 13.0214C22.8899 11.6318 23.6475 10.7262 24.0691 10.3054C25.5851 8.99982 26.4691 8.38942 26.7219 8.47262C26.9323 8.64142 26.9955 8.91502 26.9115 9.29342L23.8163 17.2534C21.7947 21.1694 19.1419 25.2542 15.8571 29.507C14.4675 31.0238 13.6043 31.9918 13.2667 32.4134C12.9307 32.8342 12.6571 33.2342 12.4459 33.6134L12.6987 32.5398L13.8979 30.6446ZM15.6043 37.847C14.7195 39.4894 14.0451 40.963 13.5827 42.2686L13.0771 42.2054L14.4035 38.0998L15.6043 37.847ZM10.9299 48.5846L11.3715 46.7526L11.7507 44.9206L12.7611 44.7302L11.4971 48.1422L10.6131 51.1102L10.9299 48.5846ZM10.6763 41.6998C10.9715 39.8046 11.3715 38.0782 11.8763 36.5206L12.3819 37.1526L10.6763 41.6998ZM8.27627 54.2694L8.02427 53.7646C7.77227 53.3854 8.21307 50.9214 9.35067 46.3734C8.92907 49.743 8.57147 52.375 8.27627 54.2694ZM7.32907 50.6694C6.99147 48.943 7.19227 45.3102 7.92907 39.7726C8.66587 34.235 9.60267 30.287 10.7395 27.9286C11.2875 26.7078 11.2659 26.5174 10.6763 27.3598C8.10747 31.7398 6.61227 38.2038 6.19227 46.7526C6.10747 49.7422 6.27627 51.9006 6.69707 53.227C7.11867 54.5534 7.60267 55.3222 8.14987 55.5326C8.44427 55.7006 8.76027 55.6798 9.09947 55.4694C9.06107 55.4582 8.86027 56.6046 8.90347 56.8582C7.77547 56.3518 6.94747 55.495 6.44427 54.3006C5.93867 53.1006 5.46507 51.5326 5.02267 49.5942C4.58027 47.6574 4.40187 45.3414 4.48587 42.6462C4.69707 39.4462 5.15947 36.3294 5.87547 33.2966C6.92827 29.0854 9.07547 25.0854 12.3187 21.295C13.0347 20.495 13.4771 20.3054 13.6459 20.7262C13.8139 22.4102 13.8035 24.0422 13.6139 25.6214C13.4243 27.2006 13.0139 28.9582 12.3819 30.8966C10.7387 36.371 9.74987 40.055 9.41307 41.951C8.78187 44.1846 8.08667 47.0894 7.32907 50.6694ZM9.20107 56.7342V55.723C10.8011 53.9966 10.6131 52.3542 11.2019 50.7958L13.4203 45.111L15.9963 39.1102C17.3859 36.415 19.3475 33.3414 21.8323 29.8878C23.3059 28.1622 24.6243 27.235 25.7603 27.1086C26.0563 27.5302 26.0619 28.3934 25.7667 29.6982C25.4723 31.0038 24.9691 32.3726 24.2531 33.8038C24.2051 33.8214 24.1467 33.847 24.2115 33.8822C21.4891 38.8958 18.8499 42.5326 16.2947 44.795L20.6515 37.7198L22.7315 33.9302C23.5315 32.4982 23.6691 31.9926 23.1635 32.4142C18.9107 38.815 16.3427 42.8366 15.5003 44.479C14.6579 46.1214 13.7963 47.6582 12.9971 49.0902C12.1963 50.5222 11.3915 51.6382 11.1395 52.4382C10.8875 53.2382 10.8011 54.6702 9.20107 56.7342ZM26.1523 59.3238C26.0259 61.219 25.6043 63.5774 24.8891 66.399C24.8467 64.0822 24.7419 62.5238 24.5731 61.723L25.1419 60.1446C25.1843 59.5966 25.0779 59.5758 24.8251 60.0814L24.4467 60.775L24.3835 59.5126L25.3307 58.3118C25.9627 57.6814 26.2371 58.0174 26.1523 59.3238ZM25.2051 55.9126C25.7523 55.7862 25.8571 56.039 25.5211 56.6702L24.3211 58.439C24.2371 57.723 24.1315 57.1126 24.0051 56.6062C24.4267 56.3126 24.8259 56.0814 25.2051 55.9126ZM20.2147 58.8814C21.0987 55.3862 21.9411 53.5334 22.7411 53.323C23.2051 54.5446 23.5843 56.8078 23.8787 60.1134C24.1731 63.4206 24.1731 66.399 23.8787 69.0534C23.4995 72.4222 22.9315 74.6942 22.1731 75.875L21.3523 77.6414C21.3523 75.0302 21.3843 72.9038 21.4467 71.263C21.5099 69.619 21.5731 67.4398 21.6363 64.7246C21.6995 62.0078 21.8779 58.923 22.1731 55.4702C22.3411 54.6278 22.2995 54.439 22.0467 54.9022C21.3723 58.3982 20.9723 62.8822 20.8459 68.3574L20.7827 71.9566L20.6563 76.8846L19.8355 75.9358C19.2459 72.9878 18.9931 69.8942 19.0771 66.6518C19.2043 64.2502 19.5835 61.6614 20.2147 58.8814ZM14.6243 69.4622C15.3195 66.3654 16.9083 63.1566 19.3931 59.8286C18.9723 61.555 18.7403 62.8398 18.6979 63.6806C16.8451 66.8814 15.4131 70.0622 14.4027 73.2206C14.1507 74.1886 13.9395 75.3462 13.7707 76.6934C13.6459 74.9686 13.9299 72.5558 14.6243 69.4622ZM18.7627 74.7358L17.3731 72.9686L18.3835 70.4414C18.3411 71.8294 18.4675 73.263 18.7627 74.7358ZM31.5219 100.825L32.4059 98.2974L35.3115 100.193L31.5219 100.825ZM38.4699 99.5622L33.7323 96.7182L29.3739 93.8118L28.5531 92.7374C28.3003 92.443 27.9531 92.3814 27.5107 92.5494C27.0683 92.7182 26.7211 92.4654 26.4675 91.7926C25.3307 92.4654 24.1723 92.2126 22.9939 91.0326L20.9091 88.5078L18.9515 85.159L18.2563 84.6534C17.8571 84.9086 17.4147 84.999 16.9307 84.9286C16.1067 84.819 15.1619 84.2726 14.2139 83.2654C13.6243 82.715 12.3603 80.5478 10.4235 76.7574C7.85547 71.8718 6.10747 68.1886 5.18107 65.7038C4.50747 63.639 4.06507 62.335 3.85467 61.7878C3.64347 61.2398 3.55947 61.2294 3.60107 61.755C3.64347 62.2814 3.95947 63.4622 4.54907 65.2942C5.13787 67.1254 6.23307 69.8102 7.83387 73.347C9.22267 76.2102 10.5923 78.8222 11.9395 81.1782C8.82267 77.8094 6.56987 74.651 5.18027 71.703C3.79067 68.7966 2.86347 66.1038 2.40107 63.619C2.19067 62.7342 2.06347 61.375 2.02107 59.5438C1.97947 57.7126 2.00027 56.6918 2.08427 56.4798C2.29467 55.8478 2.58987 55.575 2.96907 55.659C3.22107 55.659 3.80107 56.259 4.70587 57.459C5.61147 58.659 6.84267 61.355 8.40107 65.5454C9.95947 69.7326 10.9171 72.4822 11.2755 73.7894C11.6339 75.0934 11.9915 76.2302 12.3491 77.2006C12.7075 78.1678 13.1387 79.1582 13.6443 80.1678C14.4019 81.683 15.1603 82.715 15.9187 83.2646C16.9179 83.9718 17.6467 84.0974 18.1259 83.6382L15.8155 79.5062C15.6059 79.4142 15.3691 79.3966 15.0971 79.4726C15.0507 79.4758 15.0227 79.4582 14.9795 79.4582C14.9771 79.4582 14.9763 79.475 14.9755 79.475C14.8787 79.4718 14.8115 79.4382 14.7267 79.4246C14.6315 79.4078 14.5251 79.3998 14.4459 79.3662C14.3715 79.335 14.3235 79.2734 14.2635 79.2254C14.1923 79.1694 14.1107 79.1246 14.0595 79.0454C14.0131 78.975 13.9963 78.8742 13.9667 78.7878C13.9363 78.6982 13.8915 78.6222 13.8787 78.5158C13.8515 78.3022 13.8571 78.0526 13.8971 77.7662C13.9811 77.0094 14.2555 75.7046 14.7179 73.8502C15.6451 70.7334 16.9707 67.6398 18.6979 64.5662C18.4875 65.9126 18.3819 67.0486 18.3819 67.9774C16.8235 71.4718 15.6867 74.2942 14.9707 76.4398C14.5915 77.999 14.6123 78.7566 15.0339 78.715L15.5387 78.4622L15.1603 77.579L15.4123 76.8838L16.1707 78.2102L16.6131 77.8934L16.9923 78.4622L16.6131 79.0318L19.4555 83.1358L20.1507 82.5694L20.6563 83.1358C19.8139 83.9806 19.4763 84.527 19.6451 84.7798C20.4043 86.1678 21.0979 87.2846 21.7299 88.1294C22.9939 89.9798 24.0251 90.5078 24.8251 89.7086C25.0771 89.4982 25.3939 89.5406 25.7723 89.835C26.1515 90.1294 26.5731 90.7606 27.0363 91.7278L26.9731 90.275L24.6363 88.0646L23.3091 85.4118C22.2139 83.855 21.4355 82.6542 20.9723 81.8126C20.5091 80.9686 19.9299 79.959 19.2355 78.7806C18.5411 77.5998 17.6883 76.2726 16.6779 74.7998L16.8675 74.1046L18.8891 76.567C20.7003 78.8838 21.9731 80.643 22.7099 81.8438C23.4467 83.0438 23.8787 83.327 24.0051 82.6958L24.3843 81.4958L24.9523 81.8126L24.5739 84.2758L24.4475 85.0326C24.4043 85.6214 24.5211 85.9694 24.7947 86.0766C25.0683 86.1798 25.3107 86.5702 25.5211 87.243C25.6475 87.6638 26.3107 88.539 27.5115 89.8654C28.7115 91.1918 29.9747 92.3086 31.3011 93.2126C32.6283 94.1182 33.7227 94.8566 34.5859 95.4254C35.4499 95.9926 35.8603 96.5502 35.8179 97.0974L37.0179 97.3494L36.7027 95.835L37.4603 95.6438C37.8395 95.8966 38.1555 96.3622 38.4083 97.035C39.5035 97.8766 40.4507 98.5502 41.2507 99.0542L38.4699 99.5622ZM17.7515 79.0326L18.1315 78.6542L19.8995 81.6214L19.7091 82.0006L17.7515 79.0326ZM20.7203 84.971L21.4155 84.0846L23.0579 86.4246L24.0059 88.1302L24.3219 89.0758C23.7331 88.7814 23.2275 88.3406 22.8051 87.7494L21.7947 86.4254L20.7203 84.971ZM42.7027 98.8022L39.9859 96.9094C38.8915 95.6022 38.0915 94.6574 37.5859 94.0646C37.0811 93.4758 36.5963 93.0542 36.1339 92.8022C35.4587 92.4238 34.9123 92.2974 34.4907 92.4238C34.1963 92.507 33.8811 92.9286 33.5435 93.6854L33.4171 93.5598C33.5851 92.8438 33.8491 92.4014 34.2067 92.2326C34.5643 92.0646 35.0179 92.107 35.5651 92.359L38.5963 93.8118L43.7763 95.7694C45.0403 97.119 45.8187 98.0446 46.1131 98.5494C45.0611 98.6766 43.9235 98.7598 42.7027 98.8022ZM44.3451 112.005C42.5763 113.733 40.5763 115.374 38.3443 116.933L37.5859 116.681C38.8915 115.879 40.7443 114.575 43.1451 112.763L44.2195 111.563L43.6507 111.501C42.8507 112.217 41.9347 112.943 40.9027 113.681C39.8707 114.419 38.6819 115.123 37.3339 115.797L35.5011 116.682L35.8179 117.061L37.2075 117.249C38.0075 117.754 38.3443 118.262 38.2179 118.766C37.7963 119.397 37.1227 119.481 36.1971 119.018L34.6811 118.197C34.1331 117.649 33.5859 117.271 33.0387 117.061L32.4067 116.556L32.6587 115.982L34.5539 116.8H35.1227L34.8067 115.603L37.0811 114.185C37.6699 113.975 37.9235 113.601 37.8387 113.096L38.0283 111.95C38.9963 112.161 40.0491 111.997 41.1867 111.473C42.3235 110.945 43.3971 110.639 44.4075 110.555C45.0403 110.976 45.0187 111.458 44.3451 112.005ZM70.7491 13.5902L70.8763 12.1374L69.6755 12.3894C68.5387 12.7694 67.4011 12.4318 66.2651 11.379C65.5059 11.5054 65.1899 11.211 65.3163 10.495C65.6107 9.86302 65.5267 9.52702 65.0643 9.48462L63.2323 9.67422C62.0523 9.50622 61.2747 9.16862 60.8947 8.66382C60.6419 8.24222 60.8107 7.71582 61.4011 7.08462C60.2635 6.62062 59.5579 6.11662 59.2843 5.56862C59.0107 5.02062 59.1787 4.57902 59.7891 4.24142C60.3995 3.90542 61.5267 3.84142 63.1699 4.05262C62.7907 3.58862 62.6843 3.10462 62.8539 2.59982C62.8955 2.09502 63.9899 2.36862 66.1379 3.42062L67.4003 4.17902C67.7379 3.54702 68.3059 3.35822 69.1067 3.61022C70.0747 4.07342 70.9811 4.63182 71.8227 5.28382C72.6659 5.93662 73.6115 6.87342 74.6659 8.09502C75.5499 7.50542 76.1819 7.63182 76.5603 8.47342L76.7491 9.98942C75.8235 9.10542 74.6867 9.04222 73.3379 9.80062L72.4547 9.42142C71.2339 7.94782 70.4963 6.83102 70.2427 6.07262C69.9907 5.10462 69.8643 5.02062 69.8643 5.82062C69.9067 6.66302 70.4115 7.73742 71.3803 9.04222C69.5283 8.45342 68.1683 7.69502 67.3059 6.76782C66.4427 5.84142 65.7787 5.06302 65.3163 4.43102C64.8539 3.67342 64.6643 3.67342 64.7483 4.43102C65.2531 5.35822 65.9491 6.22142 66.8315 7.02142C66.1587 6.72622 65.5259 6.43182 64.9371 6.13662C63.4627 5.50542 62.2419 5.16862 61.2739 5.12622C60.8099 5.12622 60.7891 5.21022 61.2107 5.37822C62.8539 5.79982 64.0427 6.18942 64.7787 6.54702C65.5171 6.90542 66.0115 7.23102 66.2643 7.52622C65.0843 8.03182 63.8627 8.26302 62.5995 8.22142C61.7995 8.17902 61.4427 8.20062 61.5259 8.28462C61.6099 8.36862 61.8627 8.45342 62.2835 8.53662C63.7995 8.70542 65.3363 8.53742 66.8947 8.03182C68.0323 8.62142 69.3587 9.18942 70.8755 9.73742C69.9483 9.94782 69.0427 10.3694 68.1587 11.0014C67.8219 11.4222 67.9899 11.443 68.6635 11.0646C69.3379 10.559 70.3475 10.243 71.6955 10.1166L72.7699 10.5582C72.6867 11.6958 72.9595 12.8534 73.5907 14.0334L72.8963 14.2854L70.7491 13.5902ZM77.9515 20.347C75.5923 20.3894 75.1179 20.3318 74.9835 19.9694C74.8955 19.6894 74.8459 19.4334 75.6763 18.959L76.1027 18.2422C74.7323 17.6158 73.4675 16.8718 73.4011 15.1694L74.5387 14.727C75.0435 14.1382 75.0555 13.695 74.5707 13.4006C74.0859 13.1054 73.8219 12.3262 73.7803 11.0638C74.2443 10.0534 75.3803 10.0534 77.1931 11.0638C77.9923 9.50542 78.9611 9.04222 80.0971 9.67422C78.8779 9.67422 78.1603 10.2006 77.9499 11.2534C77.8235 11.927 77.8235 12.7486 77.9499 13.7174C77.5291 13.1278 77.0227 12.623 76.4331 12.2014C75.2955 11.6126 75.0851 11.675 75.8019 12.3902C76.5179 13.1062 77.1507 13.843 77.6971 14.6014C76.7699 15.359 75.7603 15.6966 74.6651 15.6126C74.2859 15.7806 74.3491 15.8862 74.8539 15.9286C75.3587 16.055 75.9491 16.0126 76.6227 15.8022C76.5387 16.4758 76.7603 17.5942 77.0547 18.267C77.4539 18.8422 77.9867 19.3502 78.6123 19.8118C78.3187 19.8958 78.0779 20.0526 77.9515 20.347ZM79.2771 21.5494C79.2347 21.0438 79.6771 20.7598 80.6035 20.6966C81.5291 20.6334 81.6771 20.3702 81.0459 19.907C79.8243 19.4854 78.8147 18.7694 78.0139 17.759C77.4667 17.043 77.4667 16.5382 78.0139 16.243L78.9619 15.991L79.4043 15.4222L78.8363 13.211C78.6675 12.0742 78.9835 11.2742 79.7827 10.811C80.9203 10.643 82.0363 10.9798 83.1307 11.8222C83.1731 11.2326 83.5635 11.0542 84.3011 11.2854C85.0371 11.5174 85.7211 13.0854 86.3523 15.9918L87.3635 16.3702C87.7003 15.5702 87.9739 15.1702 88.1851 15.1702C88.5219 15.1702 88.8587 15.8646 89.1955 17.255C90.0387 18.0126 90.4387 19.255 90.3963 20.9814C89.8491 21.6974 89.5531 22.5814 89.5131 23.635L89.0067 22.4974C88.7123 21.2342 88.5859 19.9078 88.6275 18.5182C88.5851 17.9294 88.5219 17.9294 88.4387 18.5182C88.3123 19.7398 88.2907 20.771 88.3755 21.6134C87.2379 20.139 86.0163 18.8134 84.7107 17.6334C84.4587 16.707 84.3739 15.6542 84.4587 14.475C84.3323 13.4646 84.2275 13.2334 84.1427 13.7798C84.0587 15.0438 84.1003 16.2222 84.2683 17.3174C83.2995 16.3494 82.1635 14.9382 80.8571 13.0846C80.5211 12.4958 80.3739 12.3694 80.4155 12.7062C81.2147 14.2222 82.0579 15.4854 82.9411 16.4966C83.8259 17.507 84.5411 18.307 85.0899 18.8966C83.9947 18.559 83.0467 18.3382 82.2475 18.2334C81.4459 18.1278 80.7099 17.9062 80.0363 17.5694C79.4043 17.443 79.4251 17.5902 80.0979 18.011C80.4787 18.2638 81.2475 18.4958 82.4043 18.7062C83.5627 18.9174 84.6467 19.275 85.6579 19.7806C86.2051 20.1166 86.9419 20.9806 87.8683 22.3702L88.6267 24.0758C87.4467 23.4446 86.1419 23.0022 84.7099 22.7494C83.2795 22.4966 82.4363 22.2654 82.1843 22.0542C81.0891 21.591 80.9627 21.6334 81.8051 22.1814C82.0571 22.4334 82.9523 22.7174 84.4891 23.0334C86.0267 23.3494 87.5099 23.9494 88.9419 24.8334L89.0675 25.2118C88.7731 25.5494 88.6683 26.0126 88.7515 26.6014L89.1939 27.8654C88.8147 27.4014 88.2891 27.6134 87.6147 28.4974C87.8667 27.9494 87.8035 27.4446 87.4251 26.9814C86.8363 26.0974 85.4043 25.1494 83.1291 24.139L82.7507 24.8342C80.8979 24.2438 79.7403 23.1494 79.2771 21.5494ZM94.6579 53.0382C94.2163 52.3854 93.5835 51.3854 92.7635 50.0374C91.9435 48.6894 91.3427 47.595 90.9627 46.7534C90.5835 45.911 90.5203 45.0478 90.7731 44.1638C91.0251 43.279 91.2363 42.6054 91.4059 42.1422C91.5739 41.679 91.5531 41.5942 91.3427 41.8894C90.8363 42.7734 90.4787 43.6374 90.2683 44.479L89.0051 40.8782C89.1307 39.447 89.8891 37.6158 91.2795 35.3838C91.7003 34.6254 91.6587 34.5622 91.1523 35.1934C89.8899 36.8774 89.0683 38.5838 88.6899 40.3102L86.7323 35.9518C86.6899 35.1518 87.1947 33.635 88.2483 31.4038C88.7955 30.2238 88.6691 30.2662 87.8683 31.5302C87.1947 32.7934 86.7115 33.9726 86.4155 35.067C85.8267 32.667 85.2587 30.6238 84.7099 28.9398L84.2675 28.8134L84.5203 29.5086C84.8563 31.6142 85.3211 33.4462 85.9099 35.0046C85.1099 34.2886 84.2043 33.699 83.1939 33.2366C82.6451 32.9422 82.6451 33.0046 83.1939 33.4262C84.4139 34.1422 85.3419 34.8582 85.9723 35.5742C86.4779 36.7534 86.9419 37.827 87.3619 38.7958C86.6051 38.2478 85.3203 37.6174 83.5099 36.9006C82.8355 36.7742 82.8355 36.8582 83.5099 37.1534C85.7835 38.0798 87.1939 38.9854 87.7411 39.8694L89.0051 43.2174C88.5419 43.2174 87.9307 42.523 87.1731 41.1334C86.5403 39.9534 84.9611 38.8166 82.4355 37.7214C81.9307 37.511 81.6979 37.0694 81.7411 36.395C81.8251 35.9318 82.3091 35.7422 83.1939 35.8262C82.9403 35.1102 82.6451 34.5422 82.3091 34.1206L81.8043 33.363C81.1299 31.9734 81.5291 31.279 83.0035 31.2782C82.4563 30.4358 82.2667 29.7838 82.4355 29.3206C82.3931 28.5206 82.5827 27.7414 83.0035 26.983C83.2555 26.4774 83.4467 25.9726 83.5731 25.467C84.3723 25.931 85.0987 26.3198 85.7531 26.635C86.4043 26.9518 86.7531 27.5302 86.7947 28.3718L86.4795 30.3302C86.6051 30.7094 86.9419 30.5822 87.4891 29.951C88.0363 29.1934 88.4787 28.751 88.8155 28.6246C89.2787 28.835 89.7219 29.2142 90.1419 29.7614C90.5627 30.5614 90.4155 32.0358 89.7003 34.183L89.0051 35.9518C90.4371 34.0566 91.5947 33.1518 92.4787 33.2358C92.7731 33.4462 92.8683 33.8782 92.7635 34.5302C92.6579 35.183 92.6579 35.867 92.7635 36.583C92.8683 37.299 92.6259 37.9102 92.0371 38.415C91.4483 38.9206 91.0467 39.7414 90.8363 40.8782C92.1843 39.8678 92.7307 40.0574 92.4787 41.447L91.7219 44.1638C91.5107 45.4686 91.7219 46.0798 92.3531 45.9958C92.9851 45.9118 93.3739 45.9958 93.5227 46.2478C93.6691 46.4998 93.7011 46.943 93.6163 47.575C93.2371 48.459 93.0691 49.0382 93.1115 49.3118C93.1539 49.5854 93.2683 49.8174 93.4579 50.007C93.6483 50.1966 94.0587 50.1542 94.6907 49.8806C95.3219 49.607 95.6379 49.7966 95.6379 50.4486C95.6379 51.1022 95.6491 51.7334 95.6699 52.3446C95.6907 52.955 95.8899 53.5558 96.2707 54.1446C96.5651 54.5662 96.9435 54.8398 97.4067 54.9654L97.9763 54.2702C97.1331 54.3126 96.7435 53.7654 96.8075 52.6278C96.8691 51.491 96.8595 50.607 96.7755 49.975C96.4387 49.175 96.1019 48.7326 95.7643 48.6478C95.4275 48.5638 94.6483 46.4582 93.4275 42.331L94.7539 42.3942C95.7219 45.9318 96.5019 47.8374 97.0907 48.111C97.6795 48.3846 97.9547 48.6998 97.9123 49.0582C97.8699 49.4158 97.9755 50.1846 98.2283 51.3638C98.9851 51.1526 99.4283 50.4582 99.5547 49.279C99.7651 48.1838 99.4491 47.3422 98.6059 46.7526C97.7227 46.247 97.2163 45.7846 97.0899 45.3622C96.8379 44.6462 97.1107 44.2046 97.9115 44.0358C98.3739 43.7838 97.2579 42.7726 94.5635 41.0046C93.1739 40.035 92.7507 39.1718 93.2995 38.4142C93.5099 38.0358 93.9003 38.0462 94.4683 38.4462C95.0363 38.8462 95.4051 38.9414 95.5731 38.731C95.8675 38.1414 95.6363 37.7302 94.8795 37.499C94.1203 37.267 93.7627 37.0038 93.8051 36.7094C93.7627 35.4046 93.7835 34.5206 93.8675 34.0566C93.9515 33.5926 93.9099 33.0462 93.7419 32.4142C93.2787 31.7406 92.3939 31.7822 91.0883 32.5406C91.3843 31.8246 91.4571 31.1294 91.3099 30.4558C91.1619 29.7822 90.8355 29.1294 90.3307 28.4974L89.6995 26.539C89.5299 25.8646 89.9099 25.4022 90.8355 25.1494C90.5411 23.8438 90.5411 22.9174 90.8355 22.3694C91.1299 21.7798 91.3419 21.2958 91.4683 20.9166C91.5939 20.5374 91.9731 20.4958 92.6043 20.7902C93.2363 21.0846 94.2467 22.2006 95.6363 24.1382C96.3115 23.3798 96.9627 23.6542 97.5955 24.959C98.3523 26.1382 98.6467 27.5494 98.4787 29.1918C100.036 28.3494 100.583 28.9174 100.121 30.8974C100.795 32.287 101.205 33.371 101.352 34.1502C101.5 34.9294 101.373 35.6558 100.973 36.3302C100.574 37.003 100.384 37.519 100.405 37.8782C100.426 38.2358 100.574 38.2254 100.847 37.8462C101.121 37.467 101.679 37.151 102.522 36.8982C103.069 38.0774 103.301 38.8566 103.216 39.235C103.216 39.699 102.931 40.2038 102.364 40.751C101.795 41.299 101.469 41.9518 101.384 42.7094C101.384 43.0886 101.574 43.2774 101.953 43.2774L103.09 42.9614C103.679 42.8774 103.7 43.3406 103.153 44.351C102.564 45.4454 102.132 46.3718 101.859 47.1302C101.585 47.8886 101.447 48.499 101.447 48.963C101.405 49.931 101.237 50.4998 100.943 50.6686C101.027 49.447 100.994 48.1734 100.847 46.847C100.699 45.5198 100.436 44.0366 100.058 42.3934C100.395 42.099 100.859 41.1094 101.447 39.4246C101.742 38.583 101.679 38.4774 101.259 39.1086C100.795 40.3726 100.331 41.151 99.8691 41.4454C99.4067 39.8878 98.8995 37.9926 98.3523 35.7606C98.9835 34.7078 99.3843 33.3814 99.5531 31.7806C99.5955 30.4326 99.5107 30.3278 99.3011 31.4646C99.0475 33.0654 98.5843 34.307 97.9115 35.1918C97.3627 33.4238 96.7739 31.7598 96.1427 30.2014C96.3531 29.3174 96.4371 28.2854 96.3947 27.1062C96.3523 25.9278 96.2475 25.8854 96.0787 26.9798C96.0787 27.8638 95.9723 28.6222 95.7619 29.2542L94.3731 25.7166L93.4891 23.6958C93.1947 23.0222 93.0891 23.0222 93.1731 23.6958L93.9931 26.3486C93.3619 25.6326 92.7715 25.107 92.2243 24.7694C91.6771 24.4334 91.5723 24.4534 91.9083 24.8326C92.8355 25.6326 93.6347 26.4958 94.3083 27.4222C94.8571 28.7702 95.4035 30.1598 95.9523 31.5918C94.3507 30.2438 93.2355 29.4862 92.6027 29.3182C91.8035 29.023 91.8035 29.171 92.6027 29.7598C93.7403 30.4758 95.0875 31.7398 96.6459 33.5502C97.1515 35.0238 97.6347 36.4558 98.0987 37.8462C97.2979 37.3822 96.3299 36.4566 95.1923 35.0662C94.6875 34.5614 94.6667 34.6454 95.1299 35.3182C96.0563 36.7078 97.1299 37.9294 98.3507 38.9822L99.2995 42.835C98.3299 41.867 97.0667 40.8766 95.5083 39.8662C94.8355 39.4454 94.7931 39.5294 95.3827 40.1182C96.7307 41.087 98.1411 42.519 99.6155 44.4142C100.035 45.5942 100.226 47.7622 100.183 50.9206C100.141 51.7206 99.5523 52.3102 98.4147 52.6886L98.1627 55.7214L96.5835 55.7846C95.7427 54.607 95.0995 53.691 94.6579 53.0382ZM96.7179 56.0006C96.9699 55.9166 97.5379 55.9862 98.0851 55.9862C97.4963 59.1862 96.8163 62.6926 96.2691 64.8814L95.3843 64.3766C96.1435 61.3446 96.5507 57.9382 96.7179 56.0006ZM85.4987 74.0094C85.2667 73.8214 84.5611 73.2406 83.3835 72.2726C82.3299 71.3478 81.9931 70.5062 82.3715 69.7462C82.0771 69.367 81.8139 68.9246 81.5819 68.419C81.3507 67.9142 81.4027 67.4206 81.7403 66.9358C82.0771 66.451 82.8555 66.6726 84.0771 67.6006C84.2875 66.883 84.2875 66.2094 84.0771 65.5782C83.8667 64.947 83.6147 64.3166 83.3203 63.6822C82.7715 62.6726 82.2459 61.8086 81.7403 61.0934C81.2763 60.1254 81.1707 59.5774 81.4235 59.451C81.6755 59.3246 82.0763 59.4934 82.6235 59.9566C83.6763 58.8198 84.3715 58.4934 84.7075 58.9774C85.0451 59.4614 85.3195 60.2726 85.5291 61.4094C85.7395 62.547 85.7603 63.7254 85.5923 64.9478L85.3403 65.2006L85.5923 65.4526C85.6755 65.7046 85.5715 66.6526 85.2763 68.2942C85.2763 68.631 85.3811 68.9702 85.5923 69.307C85.5083 68.799 85.4867 68.4206 85.5291 68.1678C85.5715 67.9574 85.7091 67.4638 85.9403 66.6846C86.1715 65.9054 86.2867 65.4646 86.2867 65.3582C86.2867 65.2542 86.3003 65.1782 85.9635 65.1366C86.3419 65.0102 86.4035 64.831 86.5091 64.6006C86.6147 64.3678 86.6347 64.1382 86.5723 63.9054C86.5091 63.675 86.4667 63.0102 86.4459 61.9166C86.4251 60.8214 86.3203 59.9894 86.1299 59.4206C85.9411 58.8526 85.8243 58.4102 85.7819 58.0942C85.7395 57.7782 85.4875 57.5998 85.0251 57.5574C84.5603 57.5158 83.9083 57.979 83.0659 58.947C83.4459 57.1366 83.8347 55.9254 84.2355 55.315C84.6355 54.7038 85.0459 54.5254 85.4667 54.7782C85.8875 55.0302 86.1611 55.3046 86.2867 55.599C86.4131 55.8934 86.6035 55.8406 86.8563 55.4414C87.1083 55.0414 87.3187 54.9046 87.4875 55.0302C87.6555 55.1574 87.8355 55.4094 88.0251 55.7878C88.2139 56.1678 88.3515 56.567 88.4363 56.9886C88.5195 57.4094 88.5931 58.1774 88.6555 59.2942C88.7187 60.4102 88.5827 61.1574 88.2459 61.5366C87.9075 61.9166 87.7395 62.3798 87.7395 62.9262C87.8235 65.1166 87.9915 66.1998 88.2459 66.1798C88.4979 66.1574 88.8027 65.9886 89.1619 65.6742C89.5195 65.3574 89.8355 65.2422 90.1091 65.3262C90.3827 65.4102 90.5411 66.0222 90.5835 67.1582C90.6259 68.2942 90.7307 68.4118 90.8995 67.5062C91.0675 66.5998 91.3843 66.1486 91.8475 66.1486C92.3107 66.1486 92.3955 67.3686 92.0995 69.8118C90.4571 71.2846 89.2787 72.507 88.5627 73.475C88.3107 72.4238 88.2995 71.6862 88.5307 71.2646C88.7619 70.843 88.9723 70.3702 89.1627 69.843C89.3523 69.3158 89.5099 68.8414 89.6371 68.4206C89.9739 67.411 89.9107 67.327 89.4467 68.1686C89.1947 68.6734 88.9723 69.1174 88.7851 69.495C88.5947 69.8742 88.3739 70.2526 88.1219 70.6342C88.0363 69.9582 87.7627 68.7574 87.3003 67.0326C86.9211 65.8542 86.8163 65.8742 86.9843 67.0942C87.3203 69.075 87.5523 70.9902 87.6779 72.8446C86.9627 72.0878 86.2363 71.4334 85.4987 70.887C84.7619 70.3366 84.1195 69.7486 83.5731 69.1174C83.1091 68.823 83.0243 68.8654 83.3211 69.243C83.8259 69.9166 84.5731 70.707 85.5619 71.6134C86.5523 72.5166 87.1523 73.1174 87.3627 73.4118C87.5739 73.7086 87.6995 73.9614 87.7419 74.1718C87.3627 74.6766 86.9219 75.2038 86.4155 75.751C86.1211 75.5822 85.9523 75.2966 85.9107 74.8982C85.8675 74.4942 85.7299 74.1998 85.4987 74.0094ZM62.8539 97.0966C63.3587 96.5078 64.0107 95.983 64.8115 95.5174C68.3907 93.7502 70.7699 92.7182 71.9483 92.4238C72.1595 92.3398 72.3499 92.4014 72.5179 92.611L73.0227 93.2454L72.3291 93.6854C71.9075 94.0222 71.3803 94.171 70.7483 94.1294C70.2003 94.087 69.4651 94.267 68.5379 94.6646C67.6123 95.0662 67.1051 95.6238 67.0211 96.3398C66.8523 96.8446 66.6211 97.1614 66.3267 97.2878C65.4003 97.7934 64.5579 98.2366 63.7995 98.615L61.8419 98.4886L62.8539 97.0966ZM68.2227 99.1998H67.9067L67.8979 99.0502C67.6795 99.1366 67.4531 99.159 67.2107 99.2526L65.1275 98.963L67.3379 97.8734L67.8987 98.923C67.9995 98.8806 68.0923 98.839 68.1875 98.7998L67.9067 97.7302C67.6955 97.015 67.9491 96.3526 68.6635 95.9294C69.3379 95.4238 70.0747 95.1686 70.8755 95.2526C71.2123 95.2942 71.2331 95.855 70.9387 97.0358C70.7251 97.5326 69.8027 98.2542 68.1875 98.9302L68.2227 99.1998ZM58.9995 107.333L58.6835 106.319L56.9787 108.469L55.5883 109.352C54.9571 109.899 54.3043 110.109 53.6307 109.982L51.4195 108.911L52.5563 108.341L52.8715 108.593C52.6611 109.225 52.9139 109.141 53.6307 108.341L55.5883 106.445C55.7147 105.309 55.4411 103.845 54.7675 102.056C54.0939 100.266 53.5883 99.1414 53.2515 98.6758C53.1675 98.2966 52.1987 98.2126 50.3451 98.423C51.4403 97.8758 52.7251 97.8342 54.1987 98.2974L55.7147 98.9286L56.5395 98.5782L56.4219 98.4654L55.0195 97.7926L55.7779 97.8566L56.4219 98.4654L56.6003 98.5494L56.5403 98.5774L56.9795 98.9926C59.1267 101.309 60.3363 102.889 60.6115 103.73C60.8851 104.573 60.9163 105.394 60.7051 106.193C59.9059 107.249 59.3363 107.626 58.9995 107.333ZM74.0979 116.425L74.7915 116.555L74.5395 116.869L72.8971 117.374C72.1803 118.005 71.3387 118.429 70.3699 118.639L69.2971 118.449L69.0435 117.692C69.2971 117.313 69.6227 117.038 70.0235 116.87C70.4235 116.701 70.9403 116.556 71.5715 116.426L73.0875 116.681L74.0979 116.425ZM71.7595 116.077C70.6219 116.077 69.9075 116.8 69.6115 116.8H68.7275C67.5059 115.2 66.5387 114.834 65.8227 114.119L62.8539 111.609C63.4011 111.315 64.5795 111.505 66.3907 112.011L71.7595 116.077ZM80.7931 102.878C82.0139 102.982 82.9403 102.931 83.5731 102.721C84.7091 102.258 87.0467 100.531 90.5843 97.5406C93.9955 94.971 96.8795 93.1814 99.2387 92.1718C99.9547 91.751 99.9867 91.4454 99.3323 91.255C98.6811 91.067 97.7011 90.9718 96.3955 90.9718C95.9739 91.3086 96.0155 91.5838 96.5219 91.7934C97.1107 91.751 97.5315 91.7934 97.7851 91.919C94.9635 93.3918 92.6043 94.8678 90.7099 96.3398C90.8779 95.3718 91.0251 93.7086 91.1515 91.3502C91.1091 90.5926 90.8571 89.919 90.3947 89.3278C90.1003 88.907 90.4603 88.5286 91.5555 88.1918L92.4011 87.9398V89.3278L91.2403 89.0134L91.3867 89.6446C91.6387 90.107 92.1115 90.4246 92.7867 90.5926L96.2003 90.7806L97.7195 90.719C99.4883 90.7614 100.354 91.1926 100.311 92.0142C100.27 92.8334 100.331 93.6022 100.499 94.3206C100.795 96.1302 101.512 97.8574 102.65 99.499C102.398 100.256 101.85 101.143 101.008 102.152L97.7219 104.301C94.9019 106.32 91.0683 108.954 86.2251 112.197C82.7731 112.281 78.6251 112.006 73.7811 111.375C70.2859 110.913 66.2651 110.029 61.7171 108.722L60.7051 108.47L61.1475 108.026C61.8643 107.101 62.2539 106.481 62.3171 106.164C62.3803 105.847 62.2595 105.132 61.9843 104.015C61.7107 102.898 61.2011 101.583 59.6011 100.068V99.6894L60.5635 99.563C63.1755 99.7318 65.5099 100.068 67.5507 100.573C69.5931 101.078 72.0283 101.541 74.8499 101.961C77.5875 102.469 79.5715 102.772 80.7931 102.878ZM76.0555 101.203C74.9603 101.035 73.1915 100.721 70.7483 100.255L72.9603 99.4982C74.1395 99.7502 74.8123 99.4982 74.9803 98.7406C75.1499 99.6238 75.5091 100.446 76.0555 101.203ZM89.2571 82.5702C88.4155 83.495 88.1403 84.463 88.4371 85.4758C87.2571 86.107 86.1203 87.0326 85.0259 88.2558C83.9307 89.4758 83.0987 90.5078 82.5291 91.3502C81.9611 92.1918 81.3611 92.6966 80.7299 92.867C80.0131 93.2038 79.1931 93.035 78.2659 92.359L78.0139 93.939L73.7811 96.5302L71.6971 97.4134C71.8659 96.9926 71.9707 96.2774 72.0131 95.2646L72.7715 94.6334C75.6779 93.1182 77.3619 91.727 77.8243 90.4654C78.4131 89.411 79.0459 88.5382 79.7195 87.843C80.3939 87.147 80.8779 86.2942 81.1715 85.2846L81.2347 83.7694L81.0459 82.1902C81.7195 82.947 82.3299 83.1158 82.8771 82.695C83.7619 81.051 84.7091 79.5254 85.7203 78.1142C86.7323 76.703 87.8043 75.3878 88.9419 74.1678C90.0795 72.9446 91.0467 71.9126 91.8475 71.071L91.7851 72.6502C89.2579 75.767 87.6779 77.8934 87.0467 79.0318C84.8995 82.275 83.4467 84.8446 82.6883 86.7374C82.2259 87.7886 81.5507 88.6334 80.6675 89.2646C79.9931 89.6014 79.4875 89.9598 79.1515 90.339C78.8571 90.8862 79.0251 91.0318 79.6563 90.7798C80.0763 90.359 80.5411 90.0446 81.0459 89.8342C81.9731 89.3686 83.9515 87.1806 86.9843 83.2646L86.9211 81.051L87.6155 79.851C87.5731 81.0734 87.6779 81.747 87.9315 81.8726C88.1835 81.999 88.5315 81.6518 88.9747 80.8294C89.4163 80.0102 90.5003 77.7462 92.2267 74.0414C91.8475 75.1774 91.8267 76.167 92.1635 77.0094C91.1523 77.7246 90.8795 78.9478 91.3435 80.6726L89.2571 82.5702ZM103.439 68.5454C103.291 69.5998 102.944 70.5062 102.397 71.263C100.669 73.2406 99.9539 74.4214 100.247 74.7998C100.711 75.5998 100.627 76.5054 99.9955 77.5158C99.0691 78.655 97.8483 79.9166 96.3323 81.3046C96.7531 82.1494 96.4379 82.8646 95.3843 83.4542C94.1627 84.127 92.8147 84.7158 91.3419 85.2238C94.0787 83.1598 95.7627 80.9486 96.3947 78.5902C97.2779 77.791 98.0579 77.2638 98.7315 77.011C99.3219 76.6318 99.4267 76.4638 99.0483 76.5054C98.2891 76.7998 97.4883 77.263 96.6467 77.8942C97.4467 76.295 98.0155 74.567 98.3523 72.7158C99.9947 71.1142 101.027 69.8518 101.447 68.9238C102.036 68.0406 102.058 67.8518 101.511 68.3566C100.879 69.4086 99.9107 70.5254 98.6043 71.7038C99.1947 69.8942 99.7211 67.8718 100.184 65.639C100.395 64.335 100.331 64.1022 99.9947 64.9462L99.3643 67.1574C99.0683 66.2742 98.7315 65.5974 98.3523 65.135L99.1739 67.7878C99.0043 68.8398 98.6043 70.335 97.9739 72.2726C97.3835 70.5894 96.6043 69.0726 95.6355 67.7262C94.7523 66.6294 94.6043 66.6094 95.1931 67.6614C96.1627 69.0526 96.9619 70.8838 97.5947 73.1558C97.0883 75.1782 96.4995 76.8614 95.8259 78.2102C95.3195 77.4534 94.7939 76.9262 94.2451 76.631C93.8243 76.4206 93.8243 76.547 94.2451 77.0102C94.7939 77.5574 95.2347 78.1038 95.5715 78.6542C95.0667 79.8734 94.4035 80.9478 93.5835 81.8734C92.7619 82.799 91.9507 83.579 91.1499 84.2102C92.1611 82.6534 92.4979 80.9262 92.1611 79.0318C92.1611 78.695 92.4251 78.4206 92.9507 78.2102C93.4763 77.9998 93.6563 77.767 93.4883 77.515C93.0251 76.5894 92.7923 75.8518 92.7939 75.3046C93.1307 75.1358 93.6355 75.1358 94.3091 75.3046C94.8579 74.9254 94.8043 74.3878 94.1523 73.6942C93.4987 72.9982 93.0891 71.9974 92.9203 70.6926C92.9203 69.9358 93.4259 69.6606 94.4371 69.871C94.9003 69.8286 94.9419 69.2822 94.5635 68.2302L93.4891 66.7774C92.7299 65.0918 93.0467 64.483 94.4371 64.9454L96.0795 65.9558C97.1739 66.3758 97.7003 65.639 97.6595 63.7454C97.6595 63.3246 97.9843 63.2286 98.6387 63.459C99.2899 63.6918 99.8907 63.199 100.438 61.9758C100.987 61.387 101.407 61.9334 101.701 63.6198C101.575 65.8526 102.122 66.9046 103.343 66.7782C103.554 66.9046 103.586 67.4934 103.439 68.5454ZM105.334 63.1118C105.397 63.5326 105.302 63.8806 105.05 64.1558C104.797 64.4278 104.313 64.6694 103.597 64.879L102.903 63.611C102.945 62.6014 102.608 61.6254 101.891 60.6982C102.186 60.4454 102.65 60.1782 103.281 59.9262C103.743 59.7142 103.659 59.9462 103.029 60.0302C102.355 60.1566 101.827 60.7998 101.449 60.7998H101.323C101.702 59.1998 102.313 57.9038 103.155 56.683C103.366 56.1342 103.239 56.0534 102.776 56.643C102.059 57.6534 101.427 58.647 100.881 59.7838C100.627 59.531 100.438 59.027 100.311 58.3534C100.143 57.5534 100.017 57.511 99.9331 58.2694C100.059 59.2382 100.248 59.923 100.501 60.3438C99.5755 61.7758 98.8379 62.3398 98.2899 62.0446C98.6267 60.0238 99.0691 57.8942 99.6171 55.6614C100.584 54.6934 101.427 54.3758 102.143 54.7126C103.154 53.9126 104.018 53.7638 104.733 54.2694C105.111 54.9014 105.28 55.5214 105.238 56.1326C105.195 56.743 104.986 57.427 104.607 58.1846C105.406 58.1846 105.828 58.5014 105.871 59.1326C105.532 60.5646 104.859 61.5958 103.848 62.227C104.775 62.3982 105.271 62.691 105.334 63.1118Z" fill="white"/>
<path fill-rule="evenodd" clip-rule="evenodd" d="M16.8718 103.45C16.879 103.596 17.0254 103.587 17.1782 103.719C17.7662 104.115 18.335 103.943 18.7318 103.209C19.2662 102.471 19.087 101.904 18.4982 101.515C18.1918 101.239 18.1918 101.239 17.9278 101.686L16.8718 103.45ZM8.53424 97.869C9.28944 98.4042 9.73504 98.8058 10.5414 97.7618C10.9406 97.173 10.9022 96.4634 10.4582 96.197C10.3102 96.0682 10.0174 95.9386 10.0174 95.9386C9.86864 95.945 9.87664 96.0898 9.73424 96.0986L8.53424 97.869ZM20.5158 103.762C20.627 103.183 20.7414 102.751 20.2998 102.347L20.4334 102.194C20.719 102.326 21.0334 102.595 21.3214 102.721C21.6206 102.847 21.9166 103.116 22.355 103.231L22.2166 103.378C22.0742 103.246 21.6358 103.131 21.5046 103.417C21.3742 103.718 21.0222 105.156 20.8918 105.597L20.4582 108.043L22.2478 106.528C22.5142 106.228 23.607 105.163 23.7342 104.876C24.0006 104.43 23.7038 104.307 23.5542 104.167L23.539 103.888C23.839 104.152 24.1278 104.284 24.2838 104.416C24.5822 104.545 24.8686 104.671 25.0238 104.808L25.031 104.943C24.4374 104.553 23.8998 105.293 23.3478 105.748L19.7934 109.083L19.5014 108.949L20.5158 103.762ZM15.9318 104.64C15.8062 104.935 15.4134 105.531 15.4286 105.81C15.3006 106.104 15.5838 106.236 15.8902 106.505L15.755 106.648C15.459 106.385 15.1574 106.259 14.7102 105.983C14.4174 105.863 14.119 105.6 13.8254 105.473L13.8094 105.182C14.1038 105.316 14.4022 105.586 14.5374 105.291C14.8102 105.128 15.2174 104.542 15.3454 104.244L16.659 102.037C16.7822 101.745 17.187 101.159 17.3198 100.999C17.4406 100.57 17.1486 100.441 16.8534 100.315L16.991 100.163C17.2902 100.433 17.7286 100.554 18.0326 100.82C18.3238 100.946 18.627 101.218 18.9206 101.347C19.6534 101.731 20.275 102.551 19.6078 103.591C18.951 104.767 17.7894 104.54 17.0486 104.015C16.903 104.023 16.6046 103.751 16.6046 103.751L15.9318 104.64ZM12.7542 99.5714C12.8798 99.277 13.279 98.6826 13.4134 98.533C13.5342 98.1018 13.2406 97.9722 12.947 97.8466L13.2254 97.6778L16.347 99.661L15.5438 100.842L15.3958 100.711C15.9262 99.8322 15.6158 99.5602 14.879 99.0274L14.4294 98.7666C14.287 98.6298 14.287 98.6298 14.0142 98.9298L12.8222 100.848C13.715 101.519 14.1278 101.069 14.5278 100.612L14.6718 100.603C14.4166 101.055 14.143 101.353 14.007 101.644C13.7462 102.088 13.6174 102.371 13.3478 102.677L13.1966 102.536C13.7238 101.658 13.423 101.389 12.687 100.996L11.8918 102.326C11.7614 102.611 11.4934 102.917 11.5086 103.195C11.5318 103.627 11.831 103.908 12.1286 104.023C12.8694 104.415 13.303 104.531 13.9782 103.795L14.1222 103.787L13.3342 105.1L9.76624 102.718L9.89424 102.569C10.0542 102.701 10.3406 102.835 10.6222 102.673C10.7526 102.522 11.1558 101.929 11.4278 101.638L12.7542 99.5714ZM9.30464 101.538C9.32704 101.967 9.33504 102.107 9.63824 102.382L9.50864 102.533C9.35024 102.399 9.19984 102.264 9.05344 102.121C8.89824 101.989 8.60944 102.005 8.45984 101.874L8.56384 101.147L8.58624 98.8666C8.56384 98.4402 8.56384 98.4402 8.26224 98.1682L7.59584 99.0626C7.46224 99.357 7.06864 99.9434 6.94064 100.235C6.95584 100.521 7.10624 100.655 7.39984 100.786L7.26464 100.935C6.97024 100.808 6.66944 100.539 6.38144 100.404C6.07264 100.143 5.77104 99.869 5.33984 99.7562L5.46784 99.605C5.76464 99.7338 5.91424 99.8626 6.19024 99.709C6.47184 99.5522 6.87344 98.9578 7.00064 98.6738L8.45824 96.4498C8.59584 96.2954 8.99504 95.7058 9.13024 95.4178C9.25264 95.1258 8.95664 94.9938 8.80624 94.8626L8.79184 94.5762C9.23824 94.8402 9.53904 95.1098 9.98704 95.3706C10.2798 95.4938 10.579 95.7682 10.7326 95.9002C11.4782 96.433 12.0862 97.1122 11.4222 98.1442C10.7526 99.0418 10.0358 99.0818 9.30464 98.6834V101.538ZM50.3342 103.431L49.1534 101.223L48.7886 103.607L50.3342 103.431ZM32.0206 107.596C32.163 107.871 32.1742 108.295 32.3222 108.57C32.475 108.845 32.7526 108.839 33.0294 108.831C33.5902 108.671 33.855 108.11 33.6958 107.414C33.6806 106.855 33.3878 106.578 33.1006 106.314C32.683 106.191 32.4086 106.331 32.1222 106.339L31.847 106.347L32.0206 107.596ZM31.8366 105.933L31.9766 105.93C32.2478 105.771 32.5254 105.762 32.667 105.621C32.9366 105.335 32.9262 104.92 32.9158 104.504C32.7566 103.812 32.467 103.543 31.9142 103.559C31.7774 103.699 31.487 103.705 31.487 103.705C31.487 103.705 31.495 103.98 31.4982 104.123L31.8366 105.933ZM27.4318 108.278C27.439 108.553 27.5966 109.111 27.7366 109.392C27.8918 109.662 28.1694 109.653 28.4462 109.507C29.1438 109.488 29.4118 108.927 29.2494 108.091C29.095 107.675 28.9414 107.26 28.519 107.128C28.2382 107.003 27.8206 107.013 27.4014 107.159L27.2558 107.162L27.4318 108.278ZM27.111 106.744L27.3878 106.607C27.663 106.598 27.9406 106.592 28.0806 106.312C28.3542 106.026 28.3462 105.737 28.335 105.327C28.1766 104.629 27.8774 104.223 27.183 104.377C27.183 104.377 26.9054 104.386 26.7638 104.531L26.771 104.809L27.111 106.744ZM48.5318 104.281C48.543 104.699 48.283 105.403 48.4286 105.675C48.4398 106.099 48.859 105.944 49.1438 105.936L49.151 106.219C48.867 106.228 48.583 106.236 48.3054 106.242C48.0262 106.388 47.7534 106.395 47.471 106.402L47.4678 106.264C47.8822 106.115 48.0158 105.967 48.1494 105.54C48.2686 104.842 48.2542 104.287 48.3766 103.715L48.9846 99.9418L49.263 99.9362L51.4814 104.203C51.627 104.475 51.9174 104.892 52.0678 105.162C52.2142 105.299 52.4918 105.291 52.7694 105.284L52.7774 105.559C52.499 105.568 52.079 105.579 51.8022 105.728C51.3822 105.739 50.9678 105.887 50.687 105.894L50.6838 105.759C50.815 105.61 51.2382 105.602 51.0814 105.187C51.0782 105.049 50.9382 104.771 50.9342 104.635L50.3398 103.663L48.5238 104L48.5318 104.281ZM45.9198 100.716L46.0622 100.713L46.3982 102.519L46.2502 102.523C45.9406 101.552 45.2222 100.879 44.3878 101.036C42.9854 101.213 42.8918 102.885 43.067 104.276C43.3918 105.664 43.9838 107.045 45.3822 106.868C46.3582 106.565 46.619 105.723 46.5894 104.607L46.7254 104.461L47.0614 106.545L46.7694 106.135C46.3614 106.704 45.8054 106.855 45.2454 107.011C43.7134 107.335 42.4182 106.253 42.0894 104.45C41.899 102.637 42.7046 101.078 44.2342 100.903C44.9406 100.744 45.3654 100.873 45.9302 101.134L45.9198 100.716ZM40.1854 103.378C40.1774 103.095 40.0278 102.545 40.0206 102.267C39.727 101.995 39.4526 102.003 39.307 102.006L39.163 101.877C39.5798 101.72 40.0054 101.709 40.2878 101.7C40.703 101.691 41.1206 101.538 41.4022 101.529L41.4062 101.672C41.2662 101.675 40.9854 101.827 40.855 102.099C40.863 102.39 40.8774 102.937 41.0214 103.217L41.3774 105.863C41.3846 106.138 41.543 106.831 41.679 106.965C41.8318 107.24 42.1182 107.231 42.3918 107.223L42.3998 107.509C41.9854 107.52 41.6942 107.526 41.2798 107.537C41.0022 107.68 40.5846 107.691 40.1646 107.702L40.1614 107.567C40.4446 107.559 40.719 107.553 40.7078 107.13C40.8414 106.849 40.6854 106.297 40.679 106.022L40.1854 103.378ZM35.307 104.309C35.299 104.028 35.1382 103.339 35.1302 103.055C34.9806 102.783 34.5702 102.792 34.4262 102.935L34.2758 102.66C34.6966 102.649 35.1198 102.641 35.399 102.498C35.8174 102.486 36.2454 102.475 36.5182 102.323L36.659 102.599C36.3806 102.607 36.1038 102.613 35.9702 102.893C35.9774 103.171 36.1366 103.861 36.1446 104.149L36.4926 106.786C36.6678 107.903 36.9526 108.171 37.9326 108.006C38.207 107.859 38.635 107.849 38.9022 107.557C39.1806 107.274 39.1694 106.859 39.1582 106.435L39.4342 106.286L39.6118 107.961C39.479 107.963 39.3318 107.969 39.1998 107.972C37.9358 108.147 36.5374 108.457 35.2798 108.634L35.2758 108.491C35.5558 108.351 35.8342 108.342 35.8262 108.062C35.959 107.781 35.7998 107.083 35.7926 106.803L35.307 104.309ZM30.8286 105.117C30.8206 104.834 30.6646 104.147 30.515 104.006C30.3678 103.737 30.0902 103.745 29.8046 103.751L29.8014 103.616C30.223 103.463 30.5006 103.454 30.9294 103.443C31.199 103.436 31.4758 103.288 31.7654 103.279C32.6006 103.111 33.5846 103.231 33.755 104.346C33.9222 105.179 33.363 105.605 32.8118 105.908C33.235 105.896 33.6558 105.886 33.9486 106.158C34.3686 106.422 34.6646 106.831 34.8158 107.241C34.8342 107.943 34.5638 108.366 34.2926 108.655C33.8806 109.087 33.3198 109.101 32.8974 109.112C32.7638 109.258 32.3406 109.269 32.0654 109.278C31.635 109.289 31.2198 109.435 30.8086 109.583L30.8014 109.311C30.939 109.306 31.3542 109.295 31.343 108.876C31.3358 108.599 31.183 108.038 31.1766 107.765L30.8286 105.117ZM26.1022 105.933C26.0942 105.661 25.9358 104.963 25.9286 104.69C25.7838 104.415 25.4982 104.421 25.2246 104.573L25.2174 104.292C25.495 104.283 25.9174 104.272 26.1918 104.12C26.6198 104.109 26.8974 104.103 27.1718 103.961C27.8662 103.804 28.9966 103.913 29.1726 105.162C29.3342 106 28.9206 106.423 28.3726 106.71C28.795 106.699 29.2126 106.688 29.4942 106.831C29.927 107.091 30.2166 107.507 30.231 108.062C30.3822 108.623 30.1238 109.044 29.707 109.473C29.4334 109.759 28.8798 109.911 28.4574 109.922C28.0286 109.934 27.751 109.941 27.4798 110.091C26.911 110.105 26.6406 110.259 26.0766 110.273L26.0726 110.127C26.3478 109.978 26.6334 109.97 26.7678 109.689C26.7606 109.417 26.6006 108.722 26.5926 108.443L26.1022 105.933ZM73.6414 106.671L73.2166 104.107L72.079 106.391L73.6414 106.671ZM83.1622 106.037C83.1622 105.756 83.0206 105.047 83.0206 104.898C82.8846 104.469 82.5918 104.617 82.3126 104.617V104.326C82.5918 104.326 83.0206 104.326 83.4438 104.326C83.7246 104.326 84.1542 104.185 84.5814 104.185V104.468C84.3006 104.468 84.0046 104.468 83.8734 104.759C83.8734 105.045 83.8734 105.755 83.8734 106.036L84.1542 108.606C84.1542 108.891 84.1542 109.598 84.3014 109.887C84.443 110.171 84.7262 110.171 85.0038 110.171V110.311C84.5822 110.311 84.3014 110.311 83.8742 110.311C83.4446 110.451 83.1622 110.451 82.7382 110.451V110.311C82.8854 110.311 83.3102 110.311 83.3102 109.887C83.4446 109.599 83.3102 109.032 83.3102 108.746L83.1622 106.037ZM77.5814 105.492C77.5814 105.203 77.7318 104.494 77.7318 104.213C77.5814 103.927 77.3022 103.778 77.0198 103.778L77.1662 103.647C77.4446 103.647 77.8702 103.778 78.155 103.778C78.5822 103.927 79.007 103.927 79.4302 103.927L79.2934 104.213C79.1518 104.213 78.7198 104.073 78.5822 104.353C78.4406 104.635 78.4406 105.352 78.2934 105.63L77.8702 108.347C77.7318 109.481 77.8702 109.767 78.7198 109.913C79.1518 109.913 79.571 110.053 79.8518 109.913C80.431 109.624 80.431 109.335 80.5662 108.768H80.8534L80.431 110.479C80.431 110.339 80.1414 110.339 80.1414 110.339C78.7206 110.053 77.4446 109.913 76.0342 109.623V109.48C76.3094 109.48 76.5926 109.48 76.879 109.197C76.879 109.059 77.0206 108.347 77.1662 108.058L77.5814 105.492ZM71.6534 106.959C71.5118 107.243 71.2302 107.952 71.0894 108.242C71.0894 108.662 71.5118 108.662 71.6534 108.811V108.951C71.3678 108.951 71.0894 108.811 70.8078 108.811C70.5174 108.811 70.2334 108.662 69.9566 108.662L70.0926 108.531C70.5174 108.531 70.6534 108.381 70.9478 107.952C71.2302 107.383 71.5118 106.816 71.799 106.243L73.499 102.827L73.7798 102.962L74.6294 107.811C74.7798 108.095 74.7798 108.661 74.9166 108.951C75.0542 109.245 75.1982 109.245 75.4782 109.379V109.523C75.1974 109.523 74.7798 109.379 74.3478 109.379C74.0598 109.245 73.6398 109.245 73.215 109.245L73.3566 108.951C73.499 108.951 73.9206 109.097 73.9206 108.811C73.9206 108.53 73.9206 108.241 73.9206 107.952L73.779 106.959L71.7982 106.671L71.6534 106.959ZM71.107 104.043L70.9606 103.905C71.107 103.047 70.8206 102.755 70.1134 102.612C69.6886 102.612 69.255 102.478 69.255 102.755L68.5526 107.171C68.5526 107.888 68.5526 108.029 69.255 108.319V108.456C68.8366 108.456 68.4078 108.319 67.9886 108.175C67.5566 108.175 67.1318 108.175 66.7062 108.029V107.888C67.5558 107.888 67.7078 107.748 67.843 107.031L68.4078 102.613C68.5526 102.479 68.1206 102.33 67.843 102.33C66.9878 102.199 66.7062 102.199 66.5694 103.328L66.283 103.188L66.5694 101.758L71.3878 102.613L71.107 104.043ZM63.923 103.086C63.923 102.797 64.0622 102.233 63.923 101.941C63.923 101.66 63.6422 101.515 63.3654 101.515V101.234C63.779 101.371 64.2126 101.515 64.4958 101.515C64.9214 101.515 65.343 101.661 65.7694 101.661L65.6246 101.799C65.4734 101.799 65.0566 101.799 64.9214 102.087C64.7726 102.371 64.7726 102.937 64.6358 103.229L64.3486 105.933C64.2126 106.222 64.2126 106.928 64.2126 107.078C64.2126 107.501 64.4958 107.501 64.7734 107.501V107.79C64.3486 107.639 64.0622 107.639 63.643 107.501C63.2126 107.501 62.935 107.501 62.5126 107.355V107.215C62.7878 107.215 63.0662 107.215 63.2126 106.928C63.3654 106.788 63.4982 106.073 63.4982 105.795L63.923 103.086ZM98.1454 98.8146L96.023 97.3898L96.8726 99.8154L98.1454 98.8146ZM88.587 105.686L86.7414 103.98L87.1686 106.407L88.587 105.686ZM97.011 100.379C97.011 100.806 97.2998 101.521 97.443 101.804C97.727 102.09 98.0094 101.804 98.1454 101.661L98.2918 101.947C98.1454 102.09 97.8702 102.238 97.5862 102.379C97.443 102.507 97.1526 102.659 97.011 102.948L96.8718 102.659C97.1526 102.379 97.1526 102.239 97.1526 101.804C96.8718 101.091 96.7278 100.522 96.5918 99.953L95.4558 96.2506L95.5918 96.1018L99.7126 98.9594C99.8486 99.097 100.412 99.529 100.56 99.529C100.837 99.6698 101.126 99.529 101.412 99.3826V99.669C101.126 99.8146 100.837 99.9522 100.56 100.235C100.279 100.521 99.9902 100.667 99.7126 100.953L99.5702 100.804C99.7126 100.667 99.9894 100.378 99.8486 100.091C99.7126 99.9506 99.4294 99.813 99.2822 99.6682L98.4374 99.0954L96.8718 100.235L97.011 100.379ZM89.9222 101.411C89.499 101.263 89.2078 101.263 88.931 101.558L88.7862 101.263C89.0694 101.126 89.2078 101.126 89.3558 100.843C89.499 100.843 89.7806 100.703 89.9222 100.559L95.455 102.413L93.8926 100.267C93.6094 99.989 93.3294 99.4146 93.0406 99.1338C92.6238 98.8482 92.471 98.9906 92.0518 99.1338L91.907 98.9906C92.1902 98.8474 92.471 98.7018 92.763 98.561C92.9014 98.273 93.0406 98.1378 93.3294 97.9834L93.471 98.137C93.3294 98.4226 93.0406 98.4226 93.1878 98.8474C93.3302 99.133 93.8934 99.8458 94.1838 100.266L96.447 103.411L96.3054 103.548C96.0222 103.548 95.7414 103.411 95.4558 103.263L90.3462 101.557L92.191 104.118C92.3414 104.409 92.7638 104.833 93.0406 105.116C93.3294 105.263 93.6102 105.116 93.8926 104.967V105.116C93.7494 105.407 93.471 105.548 93.187 105.686C92.9014 105.826 92.763 105.969 92.4702 106.258L92.3398 106.115C92.623 105.826 92.7622 105.686 92.623 105.263C92.4702 104.968 92.1894 104.547 91.9062 104.255L89.9222 101.411ZM87.3166 107.114C87.3166 107.397 87.4526 108.115 87.5942 108.533C87.739 108.822 88.1526 108.674 88.2974 108.533L88.4414 108.674C88.1534 108.823 88.023 108.963 87.739 109.111C87.4534 109.249 87.1694 109.389 87.0278 109.529L86.8814 109.388C87.1686 109.111 87.3166 108.963 87.1686 108.393C87.1686 107.82 87.027 107.113 86.8814 106.544L86.1718 102.695H86.4606L90.1406 105.969C90.2894 106.115 90.7142 106.544 90.995 106.681C91.2742 106.825 91.5614 106.681 91.7062 106.681L91.8478 106.825C91.5622 106.965 91.1382 107.113 90.8534 107.397C90.5726 107.54 90.1406 107.68 89.859 107.967L89.7158 107.681C90.0014 107.681 90.2894 107.398 90.1406 107.114C90.0014 106.965 89.8582 106.682 89.5758 106.545L88.8686 105.97L87.1686 106.825L87.3166 107.114Z" fill="white"/>
<path d="M15.0243 66.6802C14.6475 65.5354 14.2139 64.1722 14.0803 63.7242L13.9979 63.4466L17.2531 61.5954C16.9059 59.9274 16.6731 58.4298 16.5443 57.0338L12.8763 56.2778L12.8667 55.9914C12.8387 55.2082 12.8387 51.981 12.8667 51.197L12.8763 50.9114L16.5435 50.1554C16.6731 48.7058 16.9059 47.2082 17.2507 45.5954L15.4459 44.5834L16.6795 44.4402L18.0763 45.2234L18.0179 45.4866C17.6251 47.2706 17.3723 48.905 17.2443 50.4858L17.2227 50.757L13.5851 51.5066C13.5667 52.4722 13.5667 54.7138 13.5851 55.6794L17.2227 56.429L17.2451 56.6994C17.3715 58.2138 17.6243 59.8498 18.0195 61.701L18.0747 61.9618L14.8603 63.789C15.0123 64.2826 15.2691 65.0906 15.5251 65.8754L15.0243 66.6802ZM21.5099 77.3114C21.8283 77.7514 22.1211 78.153 22.3243 78.4226L25.6779 76.8994L25.8563 77.0986C26.9011 78.2738 28.0771 79.441 29.4515 80.6666L29.6507 80.8434L28.1243 84.2314C28.8787 84.8122 30.6979 86.125 31.4899 86.6666L34.2107 84.1674L34.4435 84.3074C35.9027 85.177 37.4259 85.9482 38.9723 86.5994L39.2235 86.7058L38.8067 90.397C39.7315 90.7194 41.8579 91.4098 42.7835 91.6898L44.5859 88.473L44.8499 88.5314C46.5947 88.9154 48.2771 89.177 49.8491 89.3034L50.1203 89.325L50.8707 92.9634C51.3315 92.9722 52.1019 92.9778 52.9675 92.9778C53.8275 92.9778 54.5891 92.9722 55.0419 92.9634L55.7627 89.3586L56.0307 89.3338C57.8539 89.1538 59.4891 88.8906 61.0307 88.5314L61.2955 88.4698L63.1275 91.6898C64.0715 91.4066 66.2035 90.7194 67.1067 90.3994L66.6899 86.7362L66.9371 86.6266C68.5147 85.9402 70.0307 85.1602 71.4403 84.3074L71.6715 84.1674L74.4243 86.669C75.2107 86.1362 77.0171 84.8066 77.7835 84.229L76.2307 80.8714L76.4355 80.6914C77.8195 79.4882 78.9939 78.3154 80.0227 77.1042L80.2003 76.8962L83.5923 78.425C84.1747 77.6706 85.4867 75.853 86.0299 75.0618L83.5307 72.3386L83.6699 72.1058C84.5251 70.6698 85.2963 69.1554 85.9611 67.6042L86.0683 67.357L89.7595 67.7466C90.0875 66.8178 90.7883 64.7002 91.0355 63.7962L87.8355 61.9618L87.8939 61.701C88.2867 59.9146 88.5395 58.2794 88.6667 56.7018L88.6891 56.4298L92.3331 55.6794C92.3707 54.7218 92.3707 52.4706 92.3339 51.5122L88.6891 50.7882L88.6667 50.5154C88.5179 48.7314 88.2491 47.0522 87.8675 45.525L87.8011 45.2578L91.0315 43.4202C90.7675 42.4866 90.0795 40.3426 89.7619 39.4474L86.0651 39.8922L85.9595 39.6362C85.3363 38.117 84.5659 36.5946 83.6699 35.1122L83.5291 34.8786L86.0331 32.153C85.4915 31.3426 84.1723 29.5162 83.5731 28.7642L80.2339 30.3226L80.0539 30.1154C78.9411 28.8378 77.7683 27.6634 76.4635 26.5258L76.2587 26.3474L77.7875 22.985C77.0291 22.393 75.2139 21.0538 74.4019 20.5186L71.7035 23.0226L71.4699 22.8834C70.0099 22.013 68.4851 21.2418 66.9411 20.5914L66.6907 20.4858L67.1075 16.8122C66.2163 16.4778 64.0747 15.7882 63.1331 15.5226L61.3251 18.7498L61.0571 18.6866C59.3499 18.281 57.7179 18.0202 56.0643 17.8858L55.7939 17.8642L55.0411 14.2458C54.5915 14.229 53.8243 14.2186 52.9555 14.2186C52.0883 14.2186 51.3219 14.229 50.8723 14.2458L50.1491 17.8618L49.8771 17.8842C48.0915 18.0338 46.4123 18.3018 44.8867 18.6834L44.6203 18.7498L42.7555 15.521C41.8363 15.7866 39.7131 16.4762 38.8051 16.8122L39.2219 20.4842L38.9707 20.5898C37.4507 21.225 35.9371 21.9954 34.4723 22.8802L34.2403 23.0202L31.4899 20.5194C31.1075 20.7834 30.4875 21.229 29.8619 21.685L29.9787 20.7018C30.5619 20.2802 31.0787 19.9146 31.3243 19.7538L31.5595 19.6002L34.3275 22.1178C35.6691 21.3218 37.0491 20.6194 38.4371 20.0242L38.0179 16.3402L38.2739 16.2362C39.0331 15.9266 42.0731 14.941 42.8379 14.7434L43.1059 14.6738L44.9755 17.9122C46.3891 17.5746 47.9219 17.329 49.5419 17.1826L50.2675 13.553L50.5435 13.5338L50.5523 13.533H50.5587L50.5675 13.5322H50.5763V13.5314L50.8147 13.5146C50.8147 13.5146 50.8235 13.5138 50.8267 13.5138L50.8915 13.509C50.9099 13.5082 50.9171 13.509 50.9171 13.509H51.1963C51.7123 13.497 52.3803 13.4922 52.9539 13.4922C53.8299 13.4922 54.9235 13.5034 55.3651 13.5346L55.6403 13.5538L56.3931 17.1834C57.9035 17.3178 59.4019 17.5578 60.9555 17.9146L62.7707 14.6762L63.0395 14.7434C63.8451 14.9442 66.9147 15.933 67.6395 16.2394L67.8891 16.345L67.4715 20.0266C68.8803 20.6314 70.2667 21.3346 71.6051 22.1194L74.3115 19.6074L74.5459 19.7482C75.2603 20.177 77.8571 22.0986 78.4643 22.5954L78.6811 22.7722L77.1427 26.1562C78.3219 27.1978 79.3971 28.2738 80.4187 29.4306L83.7683 27.8682L83.9483 28.077C84.4699 28.6818 86.3619 31.301 86.7979 31.9978L86.9443 32.233L84.4299 34.9698C85.2355 36.3266 85.9395 37.7146 86.5243 39.1034L90.2411 38.657L90.3419 38.921C90.6227 39.6498 91.6027 42.6994 91.8059 43.5082L91.8739 43.7762L88.6363 45.6178C88.9747 47.0314 89.2187 48.5634 89.3659 50.1818L93.0235 50.9074L93.0427 51.1834C93.0979 51.9722 93.0979 55.2162 93.0427 56.0042L93.0235 56.2786L89.3659 57.0314C89.2371 58.481 89.0043 59.9794 88.6571 61.5954L91.8659 63.437L91.8075 63.6978C91.6291 64.5026 90.6027 67.5626 90.3435 68.261L90.2467 68.5274L86.5219 68.1354C85.9059 69.5466 85.2043 70.9258 84.4299 72.245L86.9483 74.9882L86.7939 75.2242C86.3523 75.9002 84.4843 78.489 83.9819 79.1034L83.8051 79.3194L80.3971 77.7826C79.4387 78.8882 78.3619 79.9626 77.1163 81.0586L78.6851 84.4498L78.4571 84.6266C77.8347 85.1098 75.2579 87.0106 74.5771 87.4378L74.3443 87.5842L71.5803 85.0706C70.2843 85.8386 68.9043 86.5514 67.4707 87.1858L67.8899 90.8826L67.6275 90.9834C66.8995 91.2618 63.8459 92.2426 63.0507 92.4698L62.7763 92.549L60.9275 89.3002C59.5099 89.6194 58.0107 89.8586 56.3667 90.029L55.6387 93.673L55.3507 93.685C54.9139 93.6994 53.8323 93.7042 52.9635 93.7042C52.0963 93.7042 51.0083 93.6986 50.5563 93.685L50.2707 93.673L49.5155 90.0074C48.0699 89.8754 46.5379 89.637 44.9547 89.297L43.1331 92.5482L42.8571 92.469C42.1019 92.253 39.0579 91.2682 38.2851 90.9826L38.0179 90.885L38.4379 87.1626C37.0291 86.557 35.6403 85.8522 34.3035 85.0706L31.5611 87.589L31.3251 87.4346C30.6483 86.9914 28.0587 85.1234 27.4451 84.621L27.2291 84.4442L28.7683 81.0306C27.5347 79.9194 26.4587 78.853 25.4907 77.7818L22.0979 79.325L21.9219 79.0946C21.7539 78.8786 21.4243 78.4298 21.0443 77.9082L21.5099 77.3114Z" fill="white"/>
<path d="M52.9085 83.0999C48.6093 83.0999 44.4573 82.1911 40.5645 80.3991L40.0421 80.1575L52.9445 63.9191L65.5533 80.2775L65.0317 80.5103C61.2541 82.2055 57.0621 83.0999 52.9085 83.0999ZM41.4661 79.8159C45.0877 81.3983 48.9325 82.1975 52.9077 82.1975C56.7437 82.1975 60.6125 81.4127 64.1373 79.9167L52.9341 65.3839L41.4661 79.8159ZM74.2149 74.0799L62.7573 56.8063L82.2173 49.8679L82.2781 50.4359C83.2013 58.9191 80.4045 67.3839 74.6037 73.6591L74.2149 74.0799ZM64.1477 57.2687L74.3293 72.6175C79.5629 66.7247 82.1357 58.9439 81.4397 51.1023L64.1477 57.2687ZM31.4581 73.8295L31.0749 73.4031C25.3581 67.0503 22.6549 58.5551 23.6557 50.0959L23.7229 49.5263L43.1525 56.7607L31.4581 73.8295ZM24.4893 50.7743C23.7221 58.5959 26.2085 66.4047 31.3653 72.3687L41.7549 57.2031L24.4893 50.7743ZM59.0301 45.2727L58.4413 24.6039L59.0005 24.7215C67.3845 26.4847 74.5677 31.7703 78.7117 39.2215L78.9893 39.7215L59.0301 45.2727ZM59.3749 25.7279L59.8997 44.0943L77.6381 39.1607C73.6789 32.3663 67.0749 27.5087 59.3749 25.7279ZM46.8957 45.2519L27.0805 39.4047L27.3661 38.9087C31.6333 31.4975 38.8701 26.3063 47.2197 24.6639L47.7813 24.5527L46.8957 45.2519ZM28.4389 38.8655L46.0437 44.0599L46.8309 25.6663C39.1605 27.3359 32.5101 32.1087 28.4389 38.8655Z" fill="white"/>
<path d="M52.9425 26.7752L46.7089 44.5648L46.6105 44.844L46.3153 44.8512L27.4505 45.3072L42.4449 56.7288L42.6801 56.9072L42.5961 57.1904L37.1937 75.3072L52.6993 64.5832L52.9409 64.4152L53.1849 64.5832L68.7169 75.3064L63.3161 57.2472L63.2321 56.9656L63.4681 56.7848L78.4633 45.3088L59.6281 44.8792L59.3305 44.872L59.2329 44.5944L52.9425 26.7752ZM45.9993 44.0048L52.5377 25.3472L52.9401 24.1992L53.3449 25.3448L59.9401 44.0328L79.6969 44.4832L80.9129 44.5112L79.9481 45.2496L64.2201 57.2856L69.8849 76.2272L70.2345 77.3912L69.2329 76.7016L52.9417 65.4528L36.6785 76.7016L35.6785 77.3912L36.0257 76.2272L41.6913 57.2288L25.9633 45.2504L24.9961 44.5136L26.2129 44.484L45.9993 44.0048Z" fill="white"/>
<path fill-rule="evenodd" clip-rule="evenodd" d="M18.127 83.6387L18.1312 83.6461L18.127 83.6387Z" fill="white"/>
<path fill-rule="evenodd" clip-rule="evenodd" d="M16.4199 80.168L18.1231 83.6384L16.4199 80.168Z" fill="white"/>
</g>
<defs>
<clipPath id="clip0_8123_130971">
<rect width="108" height="120" fill="white"/>
</clipPath>
</defs>
</svg>
