<svg width="32" height="32" viewBox="0 0 32 32" fill="none" xmlns="http://www.w3.org/2000/svg">
<path d="M32 3.33333V32H17.3333V30.6667H30.6667V3.33333C30.6667 2.23067 29.7693 1.33333 28.6667 1.33333H11.3333C10.2307 1.33333 9.33333 2.23067 9.33333 3.33333V13.7107C8.90933 13.56 8.464 13.452 8 13.4V3.33333C8 1.49467 9.49467 0 11.3333 0H28.6667C30.5053 0 32 1.49467 32 3.33333ZM26.6667 5.33333H13.3333V6.66667H26.6667V5.33333ZM13.3333 12H26.6667V10.6667H13.3333V12ZM13.3333 17.3333H24V16H13.3333V17.3333ZM22.6667 20C24.872 20 26.6667 21.7947 26.6667 24C26.6667 26.2053 24.872 28 22.6667 28C20.4613 28 18.6667 26.2053 18.6667 24C18.6667 21.7947 20.4613 20 22.6667 20ZM22.6667 21.3333C21.196 21.3333 20 22.5293 20 24C20 25.4707 21.196 26.6667 22.6667 26.6667C24.1373 26.6667 25.3333 25.4707 25.3333 24C25.3333 22.5293 24.1373 21.3333 22.6667 21.3333ZM13.3333 30.6667H14.6667V32H0V30.6667H1.33333V28C1.33333 26.5293 2.52933 25.3333 4 25.3333H5.84C4.624 22.128 4 20.084 4 19.28C4 17.44 5.464 16 7.33333 16C9.20267 16 10.6667 17.44 10.6667 19.28C10.6667 20.084 10.0427 22.128 8.82667 25.3333H10.6667C12.1373 25.3333 13.3333 26.5293 13.3333 28V30.6667ZM7.264 25.3333H7.40267C9.192 20.676 9.33333 19.5253 9.33333 19.28C9.33333 18.1893 8.45467 17.3333 7.33333 17.3333C6.212 17.3333 5.33333 18.1893 5.33333 19.28C5.33333 19.5253 5.47467 20.676 7.264 25.3333ZM2.66667 30.6667H12V28C12 27.264 11.4027 26.6667 10.6667 26.6667H4C3.264 26.6667 2.66667 27.264 2.66667 28V30.6667Z" fill="#0066CC"/>
</svg>
