<svg width="28" height="27" viewBox="0 0 28 27" fill="none" xmlns="http://www.w3.org/2000/svg">
<path fill-rule="evenodd" clip-rule="evenodd" d="M13.8889 26.6667C6.21827 26.6667 0 20.6971 0 13.3333C0 5.96954 6.21827 0 13.8889 0C17.5725 0 21.1051 1.40476 23.7098 3.90524C26.3145 6.40573 27.7778 9.79711 27.7778 13.3333C27.7778 20.6971 21.5595 26.6667 13.8889 26.6667ZM20.9722 7.86667L21.9444 8.8L11.1111 18.9333L4.58329 12.8L5.55551 11.8667L11.1111 17.0667L20.9722 7.86667ZM13.8889 1.33333C20.7924 1.33333 26.3889 6.70592 26.3889 13.3333C26.3889 19.9608 20.7924 25.3333 13.8889 25.3333C6.98533 25.3333 1.38889 19.9608 1.38889 13.3333C1.38889 6.70592 6.98533 1.33333 13.8889 1.33333Z" fill="#008055"/>
</svg>
