<svg width="28" height="27" viewBox="0 0 40 40" fill="none" xmlns="http://www.w3.org/2000/svg">
<path fill-rule="evenodd" clip-rule="evenodd" d="M20.0006 40C8.95459 40 0 31.0457 0 20C0 8.9543 8.95459 0 20.0006 0C25.3051 0 30.3924 2.10714 34.1432 5.85786C37.8941 9.60859 40.0013 14.6957 40.0013 20C40.0013 31.0457 31.0467 40 20.0006 40ZM28.6009 12.6L21.2007 20L28.6009 27.2L27.2009 28.6L19.8006 21.4L12.6004 28.6L11.2004 27.2L18.4006 20L11.2004 12.6L12.6004 11.2L19.8006 18.6L27.2009 11.2L28.6009 12.6ZM20.0006 2C29.9421 2 38.0012 10.0589 38.0012 20C38.0012 29.9411 29.9421 38 20.0006 38C10.0592 38 2.00006 29.9411 2.00006 20C2.00006 10.0589 10.0592 2 20.0006 2Z" fill="#dc2626"/>
</svg>
