<svg width="24" height="24" viewBox="0 0 24 24" fill="none" xmlns="http://www.w3.org/2000/svg">
<path fill-rule="evenodd" clip-rule="evenodd" d="M15.5 3.5V4H21V5H19V20.5C19 21.3284 18.3284 22 17.5 22H6.5C5.67157 22 5 21.3284 5 20.5V5H3V4H8.5V3.5C8.5 2.67157 9.17157 2 10 2H14C14.8284 2 15.5 2.67157 15.5 3.5ZM10 3C9.72386 3 9.5 3.22386 9.5 3.5V4H14.5V3.5C14.5 3.22386 14.2761 3 14 3H10ZM18 20.5C18 20.7761 17.7761 21 17.5 21H6.5C6.22386 21 6 20.7761 6 20.5V5H18V20.5ZM12.5 8H11.5V18H12.5V8ZM9 8V18H8V8H9ZM16 18V8H15V18H16Z" fill="#0066CC"/>
</svg>
