<svg width="24" height="24" viewBox="0 0 24 24" fill="none" xmlns="http://www.w3.org/2000/svg">
<path fill-rule="evenodd" clip-rule="evenodd" d="M15.7004 2H7.50011C6.67166 2 6.00006 2.67157 6.00006 3.5V4H5.50005C4.67159 4 4 4.67157 4 5.5V20.5C4 21.3284 4.67159 22 5.50005 22H16.5004C17.3289 22 18.0005 21.3284 18.0005 20.5V20H18.5005C19.3289 20 20.0005 19.3284 20.0005 18.5V6.3L15.7004 2ZM16.0005 3.7L18.3005 6H16.5005C16.2244 6 16.0005 5.77614 16.0005 5.5V3.7ZM16.5004 21C16.7765 21 17.0004 20.7761 17.0004 20.5V20H7.50008C6.67163 20 6.00003 19.3284 6.00003 18.5V5H5.50002C5.22386 5 5 5.22386 5 5.5V20.5C5 20.7761 5.22386 21 5.50002 21H16.5004ZM18.5004 19H7.50002C7.22386 19 7 18.7761 7 18.5V3.5C7 3.22386 7.22386 3 7.50002 3H15.0003V5.5C15.0003 6.32843 15.6719 7 16.5003 7H19.0004V18.5C19.0004 18.7761 18.7765 19 18.5004 19ZM17.0005 9H9.00029V10H17.0005V9ZM9.00029 11H17.0005V12H9.00029V11ZM13.0003 13H9.00029V14H13.0003V13Z" fill="black"/>
</svg>
