<svg width="32" height="32" viewBox="0 0 32 32" fill="none" xmlns="http://www.w3.org/2000/svg">
<path d="M22.5678 22.6199C22.3708 22.4921 22.1312 22.4475 21.9013 22.4958C21.6715 22.5441 21.4701 22.6814 21.3412 22.8777C20.0878 24.7977 17.7856 27.1532 15.7323 27.9443C13.679 28.7355 12.0701 28.451 11.4301 27.9443C11.1545 27.7043 10.4345 27.0555 11.0478 24.8421C11.4567 23.3666 13.9989 16.4155 14.6034 14.7266L12.6656 14.9755C12.0523 16.6288 9.74117 22.8332 9.32339 24.3799C8.71895 26.5932 9.02117 28.2021 10.2923 29.3221C11.1807 29.9446 12.2482 30.2599 13.3323 30.2199C14.3843 30.2053 15.4244 29.9943 16.399 29.5977C18.879 28.6288 21.4834 25.9355 22.8523 23.8466C22.9143 23.7474 22.9562 23.637 22.9755 23.5216C22.9948 23.4062 22.9911 23.2881 22.9647 23.1742C22.9383 23.0602 22.8896 22.9526 22.8215 22.8575C22.7534 22.7624 22.6672 22.6816 22.5678 22.6199Z" fill="#0066CC"/>
<path d="M17.1562 9.77735C17.9474 9.77735 18.7207 9.54275 19.3785 9.10322C20.0363 8.6637 20.549 8.03898 20.8518 7.30808C21.1545 6.57717 21.2337 5.77291 21.0794 4.99698C20.925 4.22106 20.5441 3.50833 19.9847 2.94892C19.4253 2.38951 18.7125 2.00855 17.9366 1.8542C17.1607 1.69986 16.3564 1.77908 15.6255 2.08183C14.8946 2.38458 14.2699 2.89727 13.8304 3.55506C13.3908 4.21286 13.1562 4.98622 13.1562 5.77735C13.1563 6.83821 13.5777 7.85563 14.3278 8.60577C15.078 9.35592 16.0954 9.77735 17.1562 9.77735ZM17.1562 3.55512C17.5958 3.55512 18.0254 3.68545 18.3908 3.92964C18.7563 4.17382 19.0411 4.52088 19.2093 4.92694C19.3775 5.333 19.4215 5.77981 19.3358 6.21088C19.25 6.64195 19.0384 7.03791 18.7276 7.34869C18.4168 7.65948 18.0209 7.87112 17.5898 7.95687C17.1587 8.04261 16.7119 7.99861 16.3058 7.83041C15.8998 7.66222 15.5527 7.37739 15.3085 7.01195C15.0644 6.6465 14.934 6.21686 14.934 5.77735C14.934 5.18798 15.1682 4.62274 15.5849 4.206C16.0016 3.78925 16.5669 3.55512 17.1562 3.55512Z" fill="#0066CC"/>
<path d="M10.4991 13.3338C10.5525 13.3338 16.0725 12.6049 17.3702 12.4449C17.948 12.356 18.3836 12.4449 18.5258 12.5782C18.668 12.7116 18.7125 13.2893 18.4636 14.0716C17.9214 15.7249 15.1836 23.8493 14.3836 26.2582C14.7746 26.178 15.1582 26.065 15.5302 25.9204C15.8861 25.7733 16.2282 25.5949 16.5525 25.3871C17.6458 22.2227 19.6902 16.0893 20.1525 14.6849C20.6147 13.2804 20.4991 12.2138 19.8858 11.4849C19.5359 11.1301 19.0979 10.8748 18.6168 10.7452C18.1357 10.6155 17.6288 10.6162 17.148 10.7471C15.8769 10.8804 10.508 11.5827 10.2769 11.636C10.0412 11.6666 9.82724 11.7897 9.68222 11.9781C9.53719 12.1664 9.47293 12.4047 9.50358 12.6404C9.53422 12.8762 9.65727 13.0901 9.84564 13.2351C10.034 13.3802 10.2723 13.4444 10.508 13.4138L10.4991 13.3338Z" fill="#0066CC"/>
</svg>
