<svg width="24" height="24" viewBox="0 0 24 24" fill="none" xmlns="http://www.w3.org/2000/svg">
<path fill-rule="evenodd" clip-rule="evenodd" d="M2 12C2 6.47715 6.47715 2 12 2C14.6522 2 17.1957 3.05357 19.0711 4.92893C20.9464 6.8043 22 9.34784 22 12C22 17.5228 17.5228 22 12 22C6.47715 22 2 17.5228 2 12ZM3 12C3 16.9706 7.02944 21 12 21C16.9706 21 21 16.9706 21 12C21 7.02944 16.9706 3 12 3C7.02944 3 3 7.02944 3 12ZM10.8 16.5H12V18.3H10.8V16.5ZM15 10.3C15.2307 9.72924 15.3331 9.11474 15.3 8.5C15.3816 7.68318 15.0872 6.87359 14.5 6.3C13.6763 5.84487 12.7389 5.63657 11.8 5.7C10.7806 5.7158 9.76939 5.88434 8.8 6.2V7H9.3L11.6 6.7C12.2916 6.63182 12.9878 6.77107 13.6 7.1C14.0096 7.44595 14.2319 7.96483 14.2 8.5C14.233 8.98555 14.1291 9.47061 13.9 9.9C13.5621 10.3868 13.1583 10.8243 12.7 11.2C12.1833 11.6138 11.7138 12.0833 11.3 12.6C11.0106 12.937 10.8355 13.3572 10.8 13.8C10.8091 14.1423 10.8768 14.4805 11 14.8H11.9V14.2C11.9401 13.7747 12.0769 13.3643 12.3 13L13.7 11.7C14.2131 11.3143 14.6533 10.8402 15 10.3Z" fill="black"/>
</svg>
