<svg width="48" height="48" viewBox="0 0 48 48" fill="none" xmlns="http://www.w3.org/2000/svg">
<path fill-rule="evenodd" clip-rule="evenodd" d="M10.0002 18.0004C6.68638 18.0004 4 20.6867 4 24.0004C4 27.3141 6.68638 30.0004 10.0002 30.0004H11.0002L14.0003 38.6004C14.67 40.5855 16.5062 41.9427 18.6005 42.0004H19.0005C19.9526 42.0347 20.8568 41.5826 21.4006 40.8004C22.0302 40.0079 22.1831 38.9374 21.8006 38.0004L19.2005 30.0004H22.8006L40.0012 37.6004V9.40039L22.8006 18.0004H10.0002ZM20.0005 38.6004C20.0619 38.947 19.9905 39.3041 19.8005 39.6004L19.0005 40.0004H18.6005C17.3395 39.9884 16.2207 39.1893 15.8004 38.0004L13.2003 30.0004H17.0004L20.0005 38.6004ZM6.00006 24.0004C6.00006 26.2095 7.79098 28.0004 10.0002 28.0004H22.0006V20.0004H10.0002C7.79098 20.0004 6.00006 21.7913 6.00006 24.0004ZM38.0011 34.4004L24.0006 28.4004V19.6004L38.0011 12.6004V34.4004ZM42.0012 30.0004H44.0013V18.0004H42.0012V30.0004Z" fill="black"/>
</svg>
