<svg width="15" height="16" viewBox="0 0 14 14" fill="none" xmlns="http://www.w3.org/2000/svg">
<path fill-rule="evenodd" clip-rule="evenodd" d="M0 6.66667C0 2.98477 2.98477 0 6.66667 0C8.43478 0 10.1305 0.702379 11.3807 1.95262C12.631 3.20286 13.3333 4.89856 13.3333 6.66667C13.3333 10.3486 10.3486 13.3333 6.66667 13.3333C2.98477 13.3333 0 10.3486 0 6.66667ZM0.666667 6.66667C0.666667 9.98038 3.35296 12.6667 6.66667 12.6667C9.98038 12.6667 12.6667 9.98038 12.6667 6.66667C12.6667 3.35296 9.98038 0.666667 6.66667 0.666667C3.35296 0.666667 0.666667 3.35296 0.666667 6.66667ZM6.2 2.66667H7.2V4H6.2V2.66667ZM7.2 4.66667H6.2V10.6667H7.2V4.66667Z" fill="#003366"/>
</svg>
