<svg width="24" height="24" viewBox="0 0 24 24" fill="none" xmlns="http://www.w3.org/2000/svg">
<path d="M4 20.9698C3.45 20.9698 3 20.5153 3 19.9599V19.8185L12 14.3648L15.61 16.5463C15.84 16.2837 16.1 16.0413 16.38 15.8292L14.54 14.7183L21.01 10.7998V14.8597C21.36 14.9405 21.69 15.0617 22.01 15.2132V8.08304C22.01 7.31549 21.58 6.61864 20.9 6.27526L12.89 2.23552C12.33 1.95274 11.66 1.95274 11.1 2.23552L3.11 6.27526C2.43 6.61864 2 7.31549 2 8.08304V19.9599C2 21.0708 2.9 21.9797 4 21.9797H14.46C14.36 21.6566 14.28 21.3132 14.24 20.9698H4ZM3 8.08304C3 7.69927 3.21 7.34579 3.55 7.1842L11.55 3.14446C11.83 3.00307 12.16 3.00307 12.44 3.14446L20.44 7.1842C20.78 7.35589 20.99 7.70937 20.99 8.08304V9.62824L13.55 14.1325L11.99 13.1832L10.43 14.1325L3 9.62824V8.08304ZM3 10.8099L9.47 14.7284L3 18.6469V10.8099Z" fill="black"/>
<path d="M18.6606 21.1975L16.7606 19.3796L15.8906 20.3088L18.6706 22.975L23.5106 18.2081L22.6306 17.2891L18.6606 21.1975Z" fill="black"/>
</svg>
