<svg width="48" height="48" viewBox="0 0 48 48" fill="none" xmlns="http://www.w3.org/2000/svg">
<path fill-rule="evenodd" clip-rule="evenodd" d="M11.0001 8H37.0009C38.6578 8 40.001 9.34315 40.001 11V31.4L31.4008 40H11.0001C9.34319 40 8 38.6569 8 37V11C8 9.34315 9.34319 8 11.0001 8ZM10.0001 11V37C10.0001 37.5523 10.4478 38 11.0001 38H30.0007V33C30.0007 31.3431 31.3439 30 33.0008 30H38.001V11C38.001 10.4477 37.5532 10 37.0009 10H11.0001C10.4478 10 10.0001 10.4477 10.0001 11ZM36.6009 32L32.0008 36.6V33C32.0008 32.4477 32.4485 32 33.0008 32H36.6009ZM16.0003 18H32.0008V16H16.0003V18ZM32.0008 22H16.0003V20H32.0008V22ZM28.0006 26V24H16.0003V26H28.0006Z" fill="#004080"/>
</svg>
