<svg width="24" height="24" viewBox="0 0 24 24" fill="none" xmlns="http://www.w3.org/2000/svg">
<path d="M12.0053 18.6612C11.6611 18.6612 11.3214 18.5706 11.027 18.3985C10.7281 18.2264 10.479 17.9818 10.3114 17.6829C10.1846 17.4655 10.2616 17.1892 10.4745 17.0624C10.6919 16.9356 10.9681 17.0126 11.0949 17.2255C11.1855 17.384 11.3214 17.5198 11.4799 17.6104C11.8015 17.7961 12.2137 17.7961 12.5352 17.6104C12.6983 17.5198 12.8296 17.384 12.9202 17.2255C13.047 17.0081 13.3233 16.9356 13.5407 17.0624C13.7581 17.1892 13.8306 17.4655 13.7037 17.6829C13.5316 17.9818 13.2825 18.2264 12.9836 18.3985C12.6847 18.5706 12.3495 18.6612 12.0053 18.6612Z" fill="black"/>
<path d="M17 2C15.7 2 14.6 2.84 14.18 4C14.07 4.31 14 4.65 14 5C14 5.63 14.2 6.21 14.53 6.7C14.72 6.98 14.96 7.21 15.23 7.41C15.73 7.78 16.34 8 17 8C17.35 8 17.69 7.93 18 7.82C19.16 7.41 20 6.31 20 5C20 3.35 18.65 2 17 2Z" fill="black"/>
<path d="M12.0059 4C12.3816 4 12.7508 4.0419 13.1085 4.12207C13.044 4.3985 13.003 4.69288 13.003 4.99902C13.003 5.0088 13.0039 5.01856 13.004 5.02832C12.6815 4.94715 12.3467 4.90625 12.0059 4.90625C10.919 4.90629 9.895 5.33164 9.12508 6.10156C8.35529 6.87149 7.92977 7.89554 7.92977 8.98242C7.92971 12.4289 6.98777 14.354 6.26766 15.3232H17.7442C17.0241 14.354 16.0822 12.4289 16.0821 8.98242C16.0821 8.95056 16.0799 8.91846 16.0792 8.88672C16.371 8.95731 16.675 8.99689 16.9884 8.99805C16.9928 13.9106 19.0337 15.3844 19.0538 15.3994C19.2168 15.5126 19.2894 15.7215 19.2306 15.9072C19.1717 16.0929 18.9992 16.2246 18.7999 16.2246V16.2285H5.212C5.01287 16.2284 4.83627 16.0973 4.77743 15.9072C4.71855 15.717 4.79602 15.5081 4.95907 15.3994C4.99778 15.3708 7.01952 13.8844 7.01961 8.98242C7.01961 7.65085 7.53556 6.40007 8.47762 5.45801C9.42417 4.51602 10.6745 4.00004 12.0059 4ZM14.0606 4.44043C14.6003 4.68458 15.0974 5.02611 15.5294 5.45801C16.2337 6.16232 16.7002 7.0392 16.8907 7.99316C16.5429 7.97993 16.211 7.90706 15.9024 7.78223C15.7092 7.15473 15.3645 6.57925 14.8868 6.10156C14.6297 5.84448 14.3438 5.62652 14.0372 5.44922C14.0145 5.30251 14.003 5.15222 14.003 4.99902C14.003 4.80886 14.0241 4.62148 14.0606 4.44043Z" fill="black"/>
</svg>
