<svg width="48" height="48" viewBox="0 0 48 48" fill="none" xmlns="http://www.w3.org/2000/svg">
<path fill-rule="evenodd" clip-rule="evenodd" d="M36.8011 5.1993C38.3885 5.1993 39.9065 5.84986 41.0013 6.9993C42.162 8.12885 42.8168 9.67968 42.8168 11.2993C42.8168 12.9189 42.162 14.4698 41.0013 15.5993L17.6005 38.7993L7.2002 40.7993L9.20026 30.3993L32.401 6.9993C33.5703 5.8385 35.1535 5.19084 36.8011 5.1993ZM31.001 11.1993L29.6009 12.5993L35.4011 18.3993L36.8011 16.9993L31.001 11.1993ZM28.2009 14.1993L30.4009 16.1993L13.6004 32.9993L11.4003 30.7993L28.2009 14.1993ZM10.2003 35.9993C10.6763 35.9821 11.1284 36.2082 11.4003 36.5993C11.7915 36.8712 12.0175 37.3233 12.0003 37.7993L15.0004 37.1993L10.8003 32.9993L10.2003 35.9993ZM17.2005 36.5993L15.0004 34.3993L31.801 17.5993L33.8011 19.7993L17.2005 36.5993ZM38.2012 15.5993L39.6012 14.1993C41.1505 12.5763 41.1505 10.0223 39.6012 8.3993C38.8627 7.64564 37.8563 7.21433 36.8011 7.1993C35.6851 7.20437 34.6127 7.63332 33.8011 8.3993L32.401 9.7993L38.2012 15.5993Z" fill="#003366"/>
</svg>
