<svg width="48" height="48" viewBox="0 0 48 48" fill="none" xmlns="http://www.w3.org/2000/svg">
<path d="M37.7571 37.7297C38.7479 36.4485 39.2945 34.8683 39.3116 33.2369C39.3116 31.2979 38.5514 29.47 37.1848 28.1034C35.8181 26.7368 33.9902 25.9766 32.0513 25.9766C30.1124 25.9766 28.2845 26.7368 26.9179 28.1034C25.5427 29.4786 24.791 31.2979 24.791 33.2369C24.791 35.1758 25.5512 37.0037 26.9179 38.3703C28.293 39.737 30.1124 40.4972 32.0513 40.4972C33.6742 40.4801 35.2544 39.9249 36.5356 38.9341L41.5239 43.9992L42.8137 42.7094L37.74 37.7297H37.7571ZM35.9804 37.1574C34.9298 38.208 33.5375 38.7889 32.0513 38.7889C30.5736 38.7889 29.1728 38.208 28.1308 37.166C27.0801 36.1154 26.4993 34.7231 26.4993 33.2369C26.4993 30.179 28.9849 27.6849 32.0513 27.6849C33.529 27.6849 34.9298 28.2657 35.9719 29.3078C37.0225 30.3584 37.6033 31.7506 37.6033 33.2369C37.6033 34.7231 37.031 36.1154 35.9804 37.166V37.1574Z" fill="black"/>
<path d="M25.0568 38.8153H9.75892C9.25496 38.8153 8.84497 38.4138 8.84497 37.9099V10.4232C8.83643 9.91928 9.24642 9.50929 9.75037 9.50929H10.6643L10.6729 34.2456C10.6729 35.766 11.9028 36.9959 13.4232 36.9959H24.0489C23.8097 36.4066 23.6389 35.7916 23.5279 35.1595H13.4232C12.9193 35.1595 12.5093 34.7581 12.5093 34.2456V6.75892C12.5007 6.25496 12.9107 5.84497 13.4147 5.84497H27.158V10.4232C27.158 11.9436 28.388 13.1736 29.9084 13.1736H34.4867V24.7047C35.1273 24.8499 35.7423 25.0634 36.3231 25.3282V11.8838L28.4392 4H13.4147C11.8943 4 10.6643 5.23852 10.6643 6.75892V7.67286H9.75037C8.22998 7.67286 7 8.90284 7 10.4232V37.9099C7.00854 39.4303 8.24706 40.6603 9.75892 40.6603H26.7566C26.1074 40.1221 25.5351 39.5072 25.0483 38.8238L25.0568 38.8153ZM28.9859 7.11766L33.2054 11.3286H29.9084C29.4044 11.3286 28.9944 10.9186 28.9944 10.4147V7.11766H28.9859Z" fill="black"/>
</svg>
