<svg width="34" height="34" viewBox="0 0 34 34" fill="none" xmlns="http://www.w3.org/2000/svg">
<path fill-rule="evenodd" clip-rule="evenodd" d="M32.001 0H21.0007C20.4484 0 20.0006 0.447715 20.0006 1C20.0006 1.55228 20.4484 2 21.0007 2H30.4003L13.3083 19.0914C13.1131 19.2866 13.1131 19.6032 13.3083 19.7985L14.0155 20.5056C14.2107 20.7008 14.5273 20.7009 14.7226 20.5056L32.001 3.2277V13C32.001 13.5523 32.4488 14 33.0011 14C33.5534 14 34.0011 13.5523 34.0011 13V2C34.0011 0.89543 33.1056 0 32.001 0ZM28.0209 17C28.0209 16.4477 28.4686 16 29.0209 16C29.5577 16.0106 29.9903 16.4432 30.001 16.98V28C30.001 31.3137 27.3146 34 24.0008 34H6.00019C2.68638 34 0 31.3137 0 28V10C0 6.68629 2.68638 4 6.00019 4H16.0005C16.5483 4.01064 16.9899 4.45218 17.0005 5C17.0005 5.55228 16.5528 6 16.0005 6H6.00019C3.79098 6 2.00006 7.79086 2.00006 10V28C2.00006 30.2091 3.79098 32 6.00019 32H24.0208C26.23 32 28.0209 30.2091 28.0209 28V17Z" fill="black"/>
</svg>
