<svg width="36" height="36" viewBox="0 0 36 36" fill="none" xmlns="http://www.w3.org/2000/svg">
<rect x="2" y="2" width="32" height="32" rx="16" fill="#F5F5F5"/>
<rect x="2" y="2" width="32" height="32" rx="16" stroke="#FAFAFA" stroke-width="4"/>
<path d="M19.3332 11.5117V14.2654C19.3332 14.6387 19.3332 14.8254 19.4058 14.968C19.4697 15.0935 19.5717 15.1955 19.6972 15.2594C19.8398 15.332 20.0265 15.332 20.3998 15.332H23.1535M23.3332 16.6575V21.4654C23.3332 22.5855 23.3332 23.1455 23.1152 23.5733C22.9234 23.9497 22.6175 24.2556 22.2412 24.4474C21.8133 24.6654 21.2533 24.6654 20.1332 24.6654H15.8665C14.7464 24.6654 14.1863 24.6654 13.7585 24.4474C13.3822 24.2556 13.0762 23.9497 12.8845 23.5733C12.6665 23.1455 12.6665 22.5855 12.6665 21.4654V14.532C12.6665 13.4119 12.6665 12.8519 12.8845 12.4241C13.0762 12.0477 13.3822 11.7418 13.7585 11.55C14.1863 11.332 14.7464 11.332 15.8665 11.332H18.0077C18.4969 11.332 18.7415 11.332 18.9716 11.3873C19.1757 11.4363 19.3708 11.5171 19.5497 11.6268C19.7516 11.7504 19.9245 11.9234 20.2704 12.2693L22.3959 14.3948C22.7418 14.7407 22.9148 14.9136 23.0385 15.1155C23.1481 15.2944 23.2289 15.4895 23.2779 15.6936C23.3332 15.9237 23.3332 16.1683 23.3332 16.6575Z" stroke="#535862" stroke-width="1.33333" stroke-linecap="round" stroke-linejoin="round"/>
</svg>
