<svg width="24" height="24" viewBox="0 0 24 24" fill="none" xmlns="http://www.w3.org/2000/svg">
<path fill-rule="evenodd" clip-rule="evenodd" d="M12.0004 13C14.2096 13 16.0005 11.2091 16.0005 9V6C16.0005 3.79086 14.2096 2 12.0004 2C9.79118 2 8.00026 3.79086 8.00026 6V9C8.00026 11.2091 9.79118 13 12.0004 13ZM9.00029 6C9.00029 4.34315 10.3434 3 12.0003 3C13.6571 3 15.0003 4.34315 15.0003 6V9C15.0003 10.6569 13.6571 12 12.0003 12C10.3434 12 9.00029 10.6569 9.00029 9V6ZM19.0005 22H20.0005C20.0005 17.5817 16.4187 14 12.0003 14C7.58184 14 4 17.5817 4 22H5.00003C5.00003 18.134 8.13414 15 12.0003 15C15.8664 15 19.0005 18.134 19.0005 22Z" fill="black"/>
</svg>