<svg width="32" height="32" viewBox="0 0 32 32" fill="none" xmlns="http://www.w3.org/2000/svg">
<path fill-rule="evenodd" clip-rule="evenodd" d="M2.66699 16.0013C2.66699 8.63751 8.63653 2.66797 16.0003 2.66797C19.5365 2.66797 22.9279 4.07273 25.4284 6.57321C27.9289 9.0737 29.3337 12.4651 29.3337 16.0013C29.3337 23.3651 23.3641 29.3346 16.0003 29.3346C8.63653 29.3346 2.66699 23.3651 2.66699 16.0013ZM4.00033 16.0013C4.00033 22.6287 9.37291 28.0013 16.0003 28.0013C22.6277 28.0013 28.0003 22.6287 28.0003 16.0013C28.0003 9.37389 22.6277 4.0013 16.0003 4.0013C9.37291 4.0013 4.00033 9.37389 4.00033 16.0013ZM15.3337 18.9346V7.6013H16.9337V18.9346H15.3337ZM16.8003 24.4013V22.0013H15.2003V24.4013H16.8003Z" fill="#804C00"/>
</svg>
